<svg width="104" height="104" viewBox="0 0 104 104" fill="none" xmlns="http://www.w3.org/2000/svg">
<path opacity="0.2" d="M91 52C91 30.4609 73.5391 13 52 13C30.4609 13 13 30.4609 13 52C13 73.5391 30.4609 91 52 91C73.5391 91 91 73.5391 91 52Z" fill="white"/>
<path d="M79.5772 79.5772C94.8076 64.3467 94.8076 39.6533 79.5772 24.4228C64.3467 9.19239 39.6533 9.19239 24.4229 24.4228C9.19242 39.6533 9.19242 64.3467 24.4229 79.5772C39.6533 94.8076 64.3467 94.8076 79.5772 79.5772Z" stroke="white" stroke-width="1.5" stroke-miterlimit="10"/>
<path d="M65.7723 49.522L52.0004 35.7501L38.2285 49.522" stroke="white" stroke-width="1.5" stroke-linecap="round" stroke-linejoin="round"/>
<path d="M52 68.2501L52 35.7501" stroke="white" stroke-width="1.5" stroke-linecap="round" stroke-linejoin="round"/>
</svg>
