<svg width="80" height="80" viewBox="0 0 80 80" fill="none" xmlns="http://www.w3.org/2000/svg">
<path opacity="0.2" d="M61.2129 61.2132C72.9286 49.4975 72.9286 30.5025 61.2129 18.7868C49.4971 7.07107 30.5022 7.07107 18.7864 18.7868C7.07072 30.5025 7.07072 49.4975 18.7864 61.2132C30.5022 72.9289 49.4971 72.9289 61.2129 61.2132Z" fill="white"/>
<path fill-rule="evenodd" clip-rule="evenodd" d="M19.3169 19.3171C7.89405 30.74 7.89405 49.26 19.3169 60.6829C30.7397 72.1057 49.2598 72.1057 60.6826 60.6829C72.1055 49.26 72.1055 30.74 60.6826 19.3171C49.2598 7.89429 30.7397 7.89429 19.3169 19.3171ZM18.2562 61.7435C6.24761 49.7349 6.24761 30.2651 18.2562 18.2565C30.2649 6.24784 49.7347 6.24784 61.7433 18.2565C73.7519 30.2651 73.7519 49.7349 61.7433 61.7435C49.7347 73.7522 30.2649 73.7522 18.2562 61.7435Z" fill="white"/>
<path fill-rule="evenodd" clip-rule="evenodd" d="M33.1066 31.1611C33.1066 30.7469 33.4423 30.4111 33.8566 30.4111L48.8384 30.4111C49.2526 30.4111 49.5884 30.7469 49.5884 31.1611L49.5884 46.143C49.5884 46.5572 49.2526 46.893 48.8384 46.893C48.4242 46.893 48.0884 46.5572 48.0884 46.143L48.0884 31.9111L33.8566 31.9111C33.4423 31.9111 33.1066 31.5753 33.1066 31.1611Z" fill="white"/>
<path fill-rule="evenodd" clip-rule="evenodd" d="M30.6309 49.3692C30.338 49.0763 30.338 48.6014 30.6309 48.3085L48.3086 30.6309C48.6015 30.338 49.0764 30.338 49.3692 30.6309C49.6621 30.9238 49.6621 31.3986 49.3692 31.6915L31.6916 49.3692C31.3987 49.6621 30.9238 49.6621 30.6309 49.3692Z" fill="white"/>
</svg>
