<svg width="105" height="31" viewBox="0 0 105 31" fill="none" xmlns="http://www.w3.org/2000/svg">
<path d="M19.8804 30.3868V6.42269H24.6469V9.35012H24.8625C25.0744 8.88113 25.3808 8.40457 25.7818 7.92044C26.1903 7.42876 26.72 7.02028 27.3706 6.69501C28.0289 6.36217 28.846 6.19576 29.822 6.19576C31.0931 6.19576 32.2658 6.52859 33.3401 7.19426C34.4145 7.85236 35.2732 8.84709 35.9163 10.1784C36.5594 11.5022 36.881 13.1626 36.881 15.1596C36.881 17.1037 36.567 18.7451 35.939 20.084C35.3186 21.4154 34.4712 22.4252 33.3969 23.1136C32.3301 23.7944 31.1347 24.1348 29.8106 24.1348C28.8725 24.1348 28.0743 23.9797 27.416 23.6696C26.7654 23.3594 26.232 22.9699 25.8158 22.5009C25.3997 22.0243 25.0819 21.544 24.8625 21.0599H24.715V30.3868H19.8804ZM24.6128 15.1369C24.6128 16.1732 24.7566 17.0772 25.0441 17.8488C25.3316 18.6203 25.7477 19.2217 26.2925 19.6529C26.8372 20.0765 27.4992 20.2883 28.2785 20.2883C29.0654 20.2883 29.7312 20.0727 30.2759 19.6415C30.8207 19.2028 31.233 18.5976 31.513 17.8261C31.8005 17.0469 31.9442 16.1505 31.9442 15.1369C31.9442 14.1308 31.8043 13.2458 31.5243 12.4818C31.2444 11.7178 30.832 11.1202 30.2873 10.689C29.7425 10.2579 29.073 10.0423 28.2785 10.0423C27.4917 10.0423 26.8259 10.2503 26.2811 10.6663C25.744 11.0824 25.3316 11.6724 25.0441 12.4364C24.7566 13.2004 24.6128 14.1006 24.6128 15.1369Z" fill="#FC8B2A"/>
<path d="M11.1786 16.4304V6.42267H16.0133V23.8511H11.3716V20.6854H11.19C10.7966 21.7066 10.1421 22.5273 9.22664 23.1476C8.31873 23.7679 7.21033 24.078 5.90142 24.078C4.73627 24.078 3.71109 23.8133 2.82587 23.2838C1.94066 22.7543 1.24838 22.0016 0.749026 21.0258C0.257241 20.05 0.00756591 18.8813 0 17.5197V6.42267H4.83462V16.6573C4.84219 17.6861 5.11834 18.4993 5.66309 19.0969C6.20784 19.6945 6.93795 19.9933 7.85342 19.9933C8.436 19.9933 8.98075 19.8609 9.48767 19.5961C9.99458 19.3238 10.4031 18.9229 10.7133 18.3934C11.0311 17.8639 11.1862 17.2095 11.1786 16.4304Z" fill="#FC8B2A"/>
<path d="M94.3711 24.1348C93.0471 24.1348 91.8479 23.7944 90.7735 23.1136C89.7067 22.4252 88.8594 21.4154 88.2314 20.084C87.611 18.7451 87.3008 17.1037 87.3008 15.1596C87.3008 13.1626 87.6223 11.5022 88.2654 10.1784C88.9085 8.84708 89.7635 7.85236 90.8303 7.19426C91.9046 6.52859 93.0811 6.19575 94.3598 6.19575C95.3358 6.19575 96.1491 6.36217 96.7998 6.695C97.458 7.02028 97.9876 7.42875 98.3886 7.92044C98.7972 8.40457 99.1074 8.88112 99.3192 9.35012H99.4668V0.613205H104.29V23.8511H99.5235V21.0599H99.3192C99.0923 21.544 98.7707 22.0243 98.3546 22.5009C97.946 22.9699 97.4126 23.3594 96.7544 23.6696C96.1037 23.9797 95.3093 24.1348 94.3711 24.1348ZM95.9032 20.2883C96.6825 20.2883 97.3408 20.0765 97.8779 19.6529C98.4227 19.2217 98.8388 18.6203 99.1263 17.8488C99.4214 17.0772 99.5689 16.1732 99.5689 15.1369C99.5689 14.1006 99.4252 13.2004 99.1377 12.4364C98.8502 11.6724 98.434 11.0824 97.8893 10.6663C97.3445 10.2503 96.6825 10.0423 95.9032 10.0423C95.1088 10.0423 94.4392 10.2579 93.8945 10.689C93.3497 11.1202 92.9374 11.7178 92.6575 12.4818C92.3775 13.2458 92.2375 14.1308 92.2375 15.1369C92.2375 16.1505 92.3775 17.0469 92.6575 17.8261C92.945 18.5976 93.3573 19.2028 93.8945 19.6415C94.4392 20.0727 95.1088 20.2883 95.9032 20.2883Z" fill="#008AA4"/>
<path d="M76.7919 24.1915C74.9988 24.1915 73.4553 23.8284 72.1615 23.1023C70.8753 22.3685 69.8842 21.3322 69.1881 19.9933C68.4921 18.6468 68.144 17.0545 68.144 15.2163C68.144 13.4236 68.4921 11.8502 69.1881 10.4961C69.8842 9.1421 70.864 8.08686 72.1275 7.33042C73.3986 6.57398 74.8891 6.19576 76.599 6.19576C77.749 6.19576 78.8196 6.38108 79.8107 6.75174C80.8094 7.11483 81.6795 7.66325 82.4209 8.397C83.17 9.13075 83.7525 10.0536 84.1687 11.1656C84.5848 12.27 84.7929 13.5635 84.7929 15.0461V16.3737H70.0734V13.3782H80.2419C80.2419 12.6823 80.0906 12.0658 79.788 11.5287C79.4854 10.9916 79.0654 10.5718 78.5283 10.2692C77.9987 9.95906 77.382 9.80399 76.6784 9.80399C75.9445 9.80399 75.2938 9.97419 74.7264 10.3146C74.1665 10.6474 73.7277 11.0975 73.4099 11.6648C73.0922 12.2246 72.9295 12.8487 72.9219 13.537V16.385C72.9219 17.2474 73.0808 17.9925 73.3986 18.6203C73.7239 19.2482 74.1816 19.7323 74.7718 20.0727C75.3619 20.4131 76.0618 20.5833 76.8713 20.5833C77.4085 20.5833 77.9003 20.5077 78.3467 20.3564C78.7931 20.2051 79.1752 19.9781 79.4929 19.6756C79.8107 19.373 80.0528 19.0023 80.2192 18.5636L84.6907 18.8586C84.4637 19.9328 83.9984 20.8707 83.2948 21.6726C82.5987 22.4668 81.6984 23.0871 80.5938 23.5334C79.4967 23.9722 78.2294 24.1915 76.7919 24.1915Z" fill="#008AA4"/>
<path d="M39.6982 23.8511V6.42269H44.3059V9.49763H44.5102C44.8733 8.47643 45.4786 7.67082 46.326 7.08079C47.1734 6.49077 48.1872 6.19576 49.3675 6.19576C50.5629 6.19576 51.5805 6.49455 52.4203 7.09214C53.2602 7.68216 53.82 8.48399 54.1 9.49763H54.2816C54.6372 8.49912 55.2803 7.70108 56.2109 7.10349C57.149 6.49833 58.2574 6.19576 59.5361 6.19576C61.1628 6.19576 62.483 6.71392 63.4968 7.75025C64.5182 8.77901 65.0289 10.2389 65.0289 12.13V23.8511H60.2057V13.0832C60.2057 12.1149 59.9484 11.3887 59.4339 10.9046C58.9195 10.4205 58.2764 10.1784 57.5046 10.1784C56.627 10.1784 55.9423 10.4583 55.4505 11.0181C54.9587 11.5703 54.7128 12.3002 54.7128 13.208V23.8511H50.0257V12.981C50.0257 12.1263 49.7798 11.4455 49.288 10.9387C48.8038 10.4318 48.1645 10.1784 47.3701 10.1784C46.8329 10.1784 46.3487 10.3146 45.9174 10.5869C45.4937 10.8517 45.1571 11.2261 44.9074 11.7102C44.6577 12.1868 44.5329 12.7466 44.5329 13.3895V23.8511H39.6982Z" fill="#008AA4"/>
</svg>
