<svg width="169" height="48" viewBox="0 0 169 48" fill="none" xmlns="http://www.w3.org/2000/svg">
<path d="M32.0503 48V9.36585H39.7347V14.0854H40.0824C40.4239 13.3293 40.9179 12.561 41.5643 11.7805C42.223 10.9878 43.0769 10.3293 44.1258 9.80488C45.187 9.26829 46.5044 9 48.0778 9C50.127 9 52.0176 9.53659 53.7497 10.6098C55.4817 11.6707 56.8661 13.2744 57.9029 15.4207C58.9397 17.5549 59.4581 20.2317 59.4581 23.4512C59.4581 26.5854 58.9519 29.2317 57.9395 31.3902C56.9393 33.5366 55.5732 35.1646 53.8412 36.2744C52.1213 37.3719 50.1941 37.9207 48.0595 37.9207C46.547 37.9207 45.2602 37.6707 44.199 37.1707C43.15 36.6707 42.2901 36.0427 41.6192 35.2866C40.9484 34.5183 40.4361 33.7439 40.0824 32.9634H39.8445V48H32.0503ZM39.6798 23.4146C39.6798 25.0854 39.9116 26.5427 40.3751 27.7866C40.8386 29.0305 41.5095 30 42.3877 30.6951C43.2659 31.378 44.3332 31.7195 45.5895 31.7195C46.8581 31.7195 47.9315 31.372 48.8097 30.6768C49.6879 29.9695 50.3527 28.9939 50.804 27.75C51.2675 26.4939 51.4992 25.0488 51.4992 23.4146C51.4992 21.7927 51.2736 20.3659 50.8223 19.1341C50.371 17.9024 49.7062 16.939 48.828 16.2439C47.9498 15.5488 46.8703 15.2012 45.5895 15.2012C44.321 15.2012 43.2476 15.5366 42.3694 16.2073C41.5034 16.878 40.8386 17.8293 40.3751 19.061C39.9116 20.2927 39.6798 21.7439 39.6798 23.4146Z" fill="white"/>
<path d="M18.0218 25.5004V9.36621H25.8161V37.4638H18.3329V32.3601H18.0401C17.4059 34.0065 16.3508 35.3296 14.8749 36.3296C13.4112 37.3296 11.6242 37.8296 9.51408 37.8296C7.63566 37.8296 5.98289 37.4028 4.55578 36.5491C3.12867 35.6955 2.01259 34.4821 1.20755 32.9089C0.414716 31.3357 0.0121975 29.4516 0 27.2565V9.36621H7.79422V25.8662C7.80641 27.5247 8.25163 28.8357 9.12985 29.7991C10.0081 30.7626 11.1851 31.2443 12.661 31.2443C13.6002 31.2443 14.4785 31.0308 15.2957 30.604C16.1129 30.165 16.7716 29.5186 17.2717 28.665C17.784 27.8113 18.034 26.7565 18.0218 25.5004Z" fill="white"/>
<path d="M152.142 37.9207C150.007 37.9207 148.074 37.3719 146.342 36.2744C144.622 35.1646 143.256 33.5366 142.243 31.3902C141.243 29.2317 140.743 26.5854 140.743 23.4512C140.743 20.2317 141.262 17.5549 142.298 15.4207C143.335 13.2744 144.713 11.6707 146.433 10.6098C148.165 9.53658 150.062 9 152.123 9C153.697 9 155.008 9.26829 156.057 9.80487C157.118 10.3293 157.972 10.9878 158.619 11.7805C159.277 12.561 159.777 13.3293 160.119 14.0854H160.357V0H168.133V37.4634H160.448V32.9634H160.119C159.753 33.7439 159.235 34.5183 158.564 35.2866C157.905 36.0427 157.045 36.6707 155.984 37.1707C154.935 37.6707 153.654 37.9207 152.142 37.9207ZM154.612 31.7195C155.868 31.7195 156.929 31.378 157.795 30.6951C158.674 30 159.344 29.0305 159.808 27.7866C160.284 26.5427 160.521 25.0854 160.521 23.4146C160.521 21.7439 160.29 20.2927 159.826 19.061C159.363 17.8293 158.692 16.878 157.814 16.2073C156.935 15.5366 155.868 15.2012 154.612 15.2012C153.331 15.2012 152.252 15.5488 151.373 16.2439C150.495 16.939 149.83 17.9024 149.379 19.1341C148.928 20.3658 148.702 21.7927 148.702 23.4146C148.702 25.0488 148.928 26.4939 149.379 27.75C149.843 28.9939 150.507 29.9695 151.373 30.6768C152.252 31.3719 153.331 31.7195 154.612 31.7195Z" fill="white" fill-opacity="0.5"/>
<path d="M123.801 38.0122C120.911 38.0122 118.422 37.4268 116.337 36.2561C114.263 35.0732 112.665 33.4024 111.543 31.2439C110.421 29.0732 109.86 26.5061 109.86 23.5427C109.86 20.6524 110.421 18.1159 111.543 15.9329C112.665 13.75 114.245 12.0488 116.282 10.8293C118.331 9.60976 120.734 9 123.49 9C125.344 9 127.07 9.29878 128.668 9.89634C130.278 10.4817 131.681 11.3659 132.876 12.5488C134.084 13.7317 135.023 15.2195 135.694 17.0122C136.365 18.7927 136.7 20.878 136.7 23.2683V25.4085H112.97V20.5793H129.363C129.363 19.4573 129.12 18.4634 128.632 17.5976C128.144 16.7317 127.467 16.0549 126.601 15.5671C125.747 15.0671 124.753 14.8171 123.618 14.8171C122.435 14.8171 121.386 15.0915 120.471 15.6402C119.569 16.1768 118.861 16.9024 118.349 17.8171C117.837 18.7195 117.575 19.7256 117.562 20.8354V25.4268C117.562 26.8171 117.819 28.0183 118.331 29.0305C118.855 30.0427 119.593 30.8232 120.545 31.3719C121.496 31.9207 122.624 32.1951 123.929 32.1951C124.795 32.1951 125.588 32.0732 126.308 31.8293C127.028 31.5854 127.644 31.2195 128.156 30.7317C128.668 30.2439 129.059 29.6463 129.327 28.939L136.536 29.4146C136.17 31.1463 135.42 32.6585 134.285 33.9512C133.163 35.2317 131.711 36.2317 129.931 36.9512C128.162 37.6585 126.119 38.0122 123.801 38.0122Z" fill="white" fill-opacity="0.5"/>
<path d="M64 37.4634V9.36585H71.4283V14.3232H71.7576C72.3431 12.6768 73.3189 11.378 74.685 10.4268C76.0512 9.47561 77.6856 9 79.5884 9C81.5156 9 83.1562 9.48171 84.5101 10.4451C85.8641 11.3963 86.7667 12.689 87.218 14.3232H87.5107C88.084 12.7134 89.1208 11.4268 90.6211 10.4634C92.1336 9.48781 93.9205 9 95.9819 9C98.6044 9 100.733 9.83537 102.367 11.5061C104.014 13.1646 104.837 15.5183 104.837 18.5671V37.4634H97.0614V20.1037C97.0614 18.5427 96.6467 17.3719 95.8172 16.5915C94.9878 15.811 93.951 15.4207 92.7069 15.4207C91.292 15.4207 90.1881 15.872 89.3952 16.7744C88.6024 17.6646 88.206 18.8415 88.206 20.3049V37.4634H80.6496V19.939C80.6496 18.561 80.2532 17.4634 79.4604 16.6463C78.6797 15.8293 77.649 15.4207 76.3683 15.4207C75.5023 15.4207 74.7216 15.6402 74.0264 16.0793C73.3433 16.5061 72.8005 17.1098 72.398 17.8902C71.9955 18.6585 71.7942 19.561 71.7942 20.5976V37.4634H64Z" fill="white" fill-opacity="0.5"/>
</svg>
