<svg width="1200" height="422" viewBox="0 0 1200 422" fill="none" xmlns="http://www.w3.org/2000/svg">
<path d="M1158.53 -102.237C1157.06 -101.976 1154.57 -100.841 1153.18 -99.6509C1151.7 -98.4832 1149.18 -97.6577 1147.56 -97.6331C1144.53 -97.6347 1137.42 -93.1372 1136.88 -90.8389C1136.72 -90.1686 1136.3 -89.6612 1135.82 -89.7732C1135.44 -89.8628 1134.06 -87.8619 1132.74 -85.2416C1129.83 -79.2573 1130.94 -77.9861 1140.56 -76.3432L1142.98 -75.879L1140.16 -74.6195C1136.98 -73.1399 1135.19 -73.2558 1134.59 -75.012C1134.44 -75.6537 1133.07 -76.277 1131.57 -76.3257C1129.97 -76.3968 1128.43 -77.1606 1127.67 -78.2465C1126.45 -79.9455 1125.97 -80.0575 1122.36 -79.2869C1120.13 -78.7997 1117.04 -77.7031 1115.43 -76.8676C1113.82 -76.032 1111.19 -75.1331 1109.64 -74.9903C1108 -74.8699 1104.81 -73.7958 1102.5 -72.5201C1100.08 -71.2667 1095.35 -68.7377 1091.87 -66.8241C1088.39 -64.9105 1082.84 -62.7745 1079.64 -62.0101C1073.76 -60.6565 1054.58 -49.8923 1054.07 -47.6898C1053.93 -47.1152 1052.02 -44.5336 1049.69 -41.9458C1047.47 -39.3355 1045.36 -36.3932 1045.14 -35.4356C1044.92 -34.478 1043.55 -33.3837 1042.07 -33.1227C1040.6 -32.8618 1039.23 -31.7675 1039.01 -30.8099C1038.78 -29.8523 1037.33 -28.3749 1035.72 -27.5393C1033.64 -26.4104 1032.61 -25.035 1032.05 -22.6409C1031.38 -19.7681 1031.55 -19.2221 1033.56 -18.7518C1034.81 -18.4606 1035.92 -17.5948 1036.03 -16.7615C1036.13 -15.9282 1037.19 -15.2764 1038.79 -15.2053C1042.8 -15.0754 1049.3 -10.0214 1048.71 -7.53161C1048.4 -6.19096 1047.41 -5.41255 1046 -5.43884C1044.69 -5.44274 1041.5 -5.17949 1038.88 -4.78185C1034.71 -4.24142 1033.83 -4.34721 1032.73 -5.71421C1031.57 -7.1993 1031.66 -7.58239 1033.33 -8.70518C1034.91 -9.85044 1034.91 -10.2559 1032.98 -13.2323L1030.9 -16.445L1027.62 -14.0812C1024.41 -11.5992 1022.93 -8.71402 1024.34 -7.37563C1024.75 -6.97634 1024.88 -4.52129 1024.7 -2.03764C1024.31 2.2145 1024.01 2.64849 1020.77 4.41537C1018.92 5.39763 1016.97 7.26417 1016.47 8.56007C1015.92 10.0474 1014.93 10.8258 1013.64 10.7262C1010.75 10.5555 1008.63 12.6868 1007.72 16.6131C1007.18 18.9113 1006.08 20.574 1004.57 21.432C1003.29 22.1432 1002.03 23.6653 1001.78 24.7187C1001.33 26.6339 999.582 27.6386 993.665 29.1838C991.194 29.8177 990.76 29.5142 987.899 24.9059L984.795 20.0389L978.245 19.1128C972.1 18.1805 971.576 18.26 967.115 21.3575C958.878 27.208 954.812 31.2059 954.073 34.366C953.558 36.5686 952.056 38.2374 948.23 40.7765C943.105 44.1226 943.009 44.1002 940.022 42.1895C937.395 40.4642 936.415 40.3359 933.184 41.1962C931.236 41.7506 929.069 41.9505 928.516 41.7204C927.964 41.4903 926.54 41.9651 925.336 42.7945C923.164 44.3066 920.422 44.3722 920.758 42.9357C920.848 42.5527 921.764 41.6561 922.777 40.7819C924.403 39.4451 924.396 39.0397 922.597 36.8008L920.651 34.3256L914.633 35.4429C907.899 36.5949 905.12 38.975 903.687 45.1038C902.807 48.433 902.548 48.6755 900.458 47.6815C899.066 47.154 897.253 47.1338 895.88 47.8227C894.056 48.7092 894.197 48.5401 896.369 47.0281C902.197 42.8363 899.999 41.009 890.478 42.4181C885.05 43.1686 882.512 44.0899 881.106 45.7811C878.857 48.4871 876.009 49.4369 872.657 48.6529C871.413 48.3618 869.391 48.798 868.069 49.7008C866.134 51.0661 865.949 51.4267 867.014 52.4841C870.815 56.1 870.815 56.1 867.956 57.9564C864.603 60.2021 863.247 65.1369 865.496 67.1781C866.511 68.0214 867.469 68.2454 867.868 67.8338C868.667 67.0106 874.093 74.0369 873.78 75.3776C873.69 75.7606 872.643 75.9197 871.398 75.6285C869.387 75.1581 862.994 78.3088 862.635 79.841C862.546 80.224 863.2 80.882 864.113 81.2975C865.364 81.9942 865.341 82.0899 863.691 81.8049C862.615 81.6543 860.014 81.5507 857.964 81.6773C854.005 81.7613 850.377 84.7507 849.503 88.4854C848.876 91.1668 842.693 90.8314 840.313 88.0527C839.247 86.9954 837.297 85.8323 835.86 85.4963C833.562 84.9587 833.09 85.2522 832.552 87.5504C832.216 88.9869 832.292 90.8226 832.805 91.6497C833.612 92.9495 834.826 103.737 834.333 105.844C834.221 106.323 832.076 106.427 829.468 105.918C825.688 105.236 824.46 104.444 822.051 101.355C820.494 99.3752 818.487 97.5927 817.721 97.4135C816.955 97.2343 816.413 96.0975 816.512 94.8078C816.724 93.0393 816.143 92.4995 813.8 92.1534C810.883 91.673 810.883 91.673 813.37 90.5378C817.349 88.6404 817.592 81.1224 813.567 81.4937C811.59 81.7384 808.8 75.5308 810.082 73.5075C811.082 71.8224 809.39 70.4168 803.897 68.425C802.697 67.9422 801.299 67.0093 800.69 66.1598C799.912 65.1697 799.123 65.0863 797.277 66.0685C795.927 66.6616 794.729 67.8964 794.572 68.5668C794.393 69.3328 793.729 69.5815 793.221 69.1598C792.596 68.8115 791.21 68.6894 790.141 68.9443C788.643 69.301 787.73 68.8855 786.754 67.4452C785.998 66.3593 784.696 65.4488 783.959 65.5793C783.244 65.614 781.993 64.9174 781.31 63.9497C780.165 62.3688 779.833 62.4931 778.187 65.6432C775.608 70.1911 775.569 70.788 776.809 75.4209C778.23 81.0053 777.708 82.8024 774.369 82.8293C772.747 82.854 770.04 83.6347 768.312 84.5436C764.215 86.5143 763.353 86.3127 762.707 83.0305C762.162 80.1762 760.563 80.1051 759.891 82.9779C759.51 84.6058 758.869 84.7587 756.446 83.8891C754.48 83.2272 753.465 82.3838 753.689 81.4262C753.772 80.6377 753.725 79.1117 753.375 78.0197C752.871 76.2859 752.415 76.0782 746.739 76.1645C743.495 76.2138 739.463 76.1797 737.959 76.131C736.338 76.1557 732.803 77.4499 729.894 79.0925C725.116 81.813 724.807 81.8416 725.277 79.8306C725.568 78.5857 725.228 76.587 724.59 75.4278C723.387 73.2276 723.292 73.2052 720.203 75.6138C717.374 77.7799 716.85 77.8595 714.658 76.4377C713.26 75.5047 710.595 74.3763 708.584 73.906C705.136 73.0996 705.063 72.9814 706.073 70.3897C706.623 68.9023 709.3 66.0944 712.011 64.0016C717.434 59.8161 720.651 56.4274 721.189 54.1291C721.368 53.3631 722.205 51.9428 723.122 51.0463C724.438 49.7381 724.521 48.9496 723.262 46.13C722.493 44.2333 722.118 41.5195 722.476 39.9873C723.126 37.2102 719.902 30.6991 717.757 30.8032C717.233 30.8828 716.037 29.088 715.217 26.9773C714.054 24.1801 713.01 23.0271 711.338 22.8378C710.166 22.6648 708.701 22.0191 708.165 21.2877C707.534 20.534 706.553 20.4058 705.085 21.0722C703.948 21.6143 701.972 21.859 700.822 21.5902C699.673 21.3215 697.454 21.3075 695.957 21.6642C693.626 22.1291 693.001 21.7807 691.511 19.5133C689.948 17.1277 689.035 16.7122 685.358 16.458L681.083 16.1652L683.823 14.3821C685.877 12.9434 686.529 11.8839 686.632 9.2821C686.624 7.15907 686.177 6.04466 685.102 5.89402C684.217 5.78823 682.443 5.1711 681.096 4.45208C679.124 3.38473 677.885 3.49897 674.12 5.34536C667.181 8.67138 660.455 19.7232 662.876 23.6225C664.196 25.7494 661.489 26.5301 656.509 25.3653C653.158 24.5814 652.42 24.7119 652.231 26.3846C652.08 27.4604 652.504 28.6706 653.299 29.1594C654.24 29.8846 653.649 30.2514 651.223 30.6938C649.32 31.0568 647.637 31.7742 647.503 32.3487C647.391 32.8275 646.13 33.0376 644.789 32.724C642.778 32.2536 642.58 31.8033 643.417 30.3832C644.277 28.8672 644.057 28.5127 641.471 27.9079C639.843 27.5272 638.177 27.7434 637.71 28.4423C637.244 29.1412 634.935 29.5102 632.548 29.3557C627.794 28.9509 622.031 31.1378 624.009 32.6106C625.745 33.8246 619.688 35.5389 614.699 35.2808C612.407 35.1487 610.239 35.3486 609.744 35.7379C609.344 36.1495 607.47 36.8221 605.494 37.0668C603.591 37.4297 601.317 38.5139 600.401 39.4105C599.417 40.5944 597.919 40.9511 596.196 40.5479C593.323 39.876 592.856 40.5749 589.726 49.6398C589.384 50.6707 587.713 52.199 586.104 53.0345L583.195 54.6771L585.728 58.0976C586.997 60.0106 588.098 61.7829 588.03 62.0702C587.694 63.5067 570.032 61.2943 562.601 58.9502C557.615 57.38 556.038 57.2132 553.883 58.224C551.159 59.5059 549.778 62.8189 550.616 66.1459C551.017 67.4519 550.4 69.2265 548.911 71.7063C546.697 75.1274 546.703 75.5328 548.246 79.7317C549.167 82.2702 550.201 84.3299 550.679 84.4419C551.445 84.6211 553.131 90.3684 552.75 91.9964C552.347 93.7201 549.057 92.2434 547.634 89.6887C546.945 88.3155 546.605 86.3169 546.947 85.2859C547.951 82.2887 541.713 75.2747 538.109 75.1387C535.795 75.1023 535.479 74.7254 536.102 73.3562C536.54 72.3476 535.969 70.9012 534.543 69.6585C532.294 67.6173 532.102 67.5725 528.417 69.9425C524.872 72.1434 524.686 72.5041 525.921 73.7019C526.767 74.4047 527.708 75.1299 528.091 75.2195C528.976 75.3253 529.343 80.6633 528.516 81.1768C528.184 81.3012 526.949 80.1033 525.849 78.3309C523.919 75.3545 523.654 75.1915 521.307 76.1576C518.982 77.0279 518.887 77.0055 519.97 74.5319C520.498 73.1403 521.94 69.1345 523.078 65.5628L525.153 59.2811L522.568 58.6764C520.365 58.1612 520.219 57.9249 521.681 56.853C523.048 55.7588 522.969 55.2351 521.389 53.3507C519.421 50.9713 519.421 50.9713 518.146 53.4001C517.286 54.916 517.142 56.3972 517.78 57.5564C518.982 59.7567 516.589 68.6911 514.491 70.3213C513.523 71.0039 511.93 71.3383 510.781 71.0695C509.536 70.7783 506.311 72.044 503.098 74.1205C498.113 77.2975 497.573 77.8783 498.549 79.3186C499.254 80.1905 499.544 81.9752 499.23 83.3159C498.939 84.5608 498.768 87.4499 498.968 89.6177C499.114 92.8836 498.89 93.8412 497.331 94.8907C494.029 97.3503 488.042 105.242 487.37 108.115C487.011 109.647 486.04 111.642 485.241 112.465C482.772 114.817 483.364 119.197 486.045 119.824C487.386 120.138 488.423 120.885 488.458 121.6C488.566 122.434 489.546 122.562 491.995 122.024C495.108 121.237 495.586 121.349 498.8 124.019C502.594 127.23 505.094 131.653 504.467 134.334C503.661 137.782 502.139 136.516 501.011 131.405C499.811 126.175 499.811 126.175 494.949 124.937C490.736 123.951 489.688 124.11 486.239 126.334C482.436 128.777 482.251 129.138 481.638 134.347L481.076 139.771L475.67 143.455C472.671 145.481 469.965 147.979 469.719 149.033C469.405 150.373 468.106 151.18 465.915 151.476C464.035 151.743 461.535 152.067 460.392 152.204C459.227 152.436 457.25 152.681 456.034 152.7C454.604 152.769 453.518 153.525 453.249 154.674C452.734 156.877 450.583 156.576 449.329 154.161C448.838 153.238 447.654 152.255 446.697 152.031C444.303 151.471 440.04 147.242 438.825 144.23C437.435 140.673 438.77 140.581 441.635 143.878C443.699 146.279 444.42 146.65 446.176 146.051C447.364 145.723 448.868 145.771 449.662 146.26C452.171 148.059 455.638 147.052 459.592 143.533C461.898 141.446 465.472 139.555 467.707 139.068C471.203 138.371 471.861 137.716 472.865 134.719C473.616 132.37 474.741 131.017 476.519 130.322C480.268 128.977 481.502 125.428 479.426 122.215C477.253 118.98 477.785 116.276 482.111 109.006C483.949 105.901 485.729 102.176 486.065 100.74C486.378 99.3989 488.059 96.964 489.752 95.3399C491.541 93.7383 494.058 89.8832 495.394 86.7617C497.584 81.7188 497.712 80.7388 496.73 78.893C495.234 76.2201 496.695 73.4307 501.252 70.3556C503.069 69.0637 505.251 66.645 506.059 64.9151C506.868 63.1852 508.127 61.2577 508.763 60.6993C509.612 60.09 510.015 58.3663 509.848 55.1961C509.69 51.1193 509.324 50.5285 506.929 49.9685C505.493 49.6325 504.073 48.7953 503.898 48.2493C503.745 47.6076 502.589 46.9333 501.344 46.6422C500.1 46.351 498.577 45.0859 497.866 43.8086C496.737 41.7265 496.45 41.6593 493.793 42.6539C492.251 43.2022 488.865 46.4502 485.683 50.554C479.927 57.8936 475.606 60.8219 469.271 61.5623C466.462 61.9152 464.83 62.8465 462.913 65.4281C460.619 68.3256 460.44 69.0917 461.388 70.2224C462.335 71.353 462.179 72.0233 460.268 75.0104C459.031 76.8422 457.919 79.0061 457.644 79.7498C457.465 80.5159 455.721 81.926 453.757 82.9816C450.229 84.6813 450.206 84.7771 450.948 88.0817C451.429 89.9112 452.507 91.7794 453.28 92.364C454.317 93.1116 454.403 94.0407 453.364 96.3227C452.466 98.4356 452.423 100.345 453.322 102.979C454.351 106.351 454.357 106.756 452.838 107.209C451.864 107.486 450.857 108.766 450.566 110.01C450.275 111.255 449.483 112.484 448.818 112.733C447.299 113.185 446.355 110.742 446.982 108.061C447.251 106.912 445.995 102.78 444.098 98.8014C442.296 94.845 440.269 90.1286 439.765 88.3949C438.063 83.1487 428.338 66.431 426.931 66.4047C426.238 66.3437 425.319 65.5227 424.828 64.5998C424.286 63.463 423.108 62.8846 421.486 62.9092C419.245 62.991 419.076 62.8505 420.341 61.3283C421.28 60.336 421.571 59.0911 421.198 58.0948C420.876 57.3125 420.874 55.595 421.143 54.4459C421.837 51.4773 420.767 46.9849 419.33 46.6489C418.66 46.4921 416.824 46.5677 415.327 46.9245C412.686 47.4179 412.501 47.7786 412.135 51.9349C411.98 54.3228 412.26 57.0142 412.847 57.9594C413.434 58.9047 413.762 60.0925 413.65 60.5713C413.538 61.0501 414.31 61.6347 415.364 61.8811C416.417 62.1275 417.189 62.7122 417.055 63.2867C416.943 63.7656 416.448 64.1548 415.873 64.0204C415.394 63.9084 414.356 66.1904 413.684 69.0633C412.608 73.6598 412.26 74.2853 410.536 73.8822C409.483 73.6358 408.464 74.1045 408.285 74.8706C408.084 75.7325 407.087 76.1054 405.555 75.7471C404.215 75.4335 402.717 75.7902 402.251 76.4891C401.688 77.1656 400.957 77.7015 400.478 77.5896C398.946 77.2312 400.081 74.9715 402.495 73.7182C403.75 73.1027 404.925 71.9637 405.082 71.2933C405.507 69.4739 402.754 65.6989 401.353 66.078C400.784 66.3491 398.16 66.3413 395.463 66.2153C391.048 66.0916 390.614 65.7881 388.081 62.3676C385.423 58.6151 383.744 58.0204 374.295 57.8301C370.668 57.7898 369.912 56.704 371.491 53.8412C372.21 52.4944 373.228 52.0256 374.856 52.4064C377.059 52.9216 377.222 52.6567 377.297 49.7452C377.347 45.212 377.223 44.8799 374.159 44.1631C370.041 43.2 364.996 44.04 364.593 45.7638C364.184 47.082 363.992 47.0372 363.128 45.1181C362.535 43.7674 360.895 42.5757 358.641 41.8466C343.425 37.3785 337.606 35.9164 337.427 36.6825C337.337 37.0656 336.622 37.1003 335.923 36.6338C335.247 36.0716 333.022 35.6522 331.135 35.5139C328.534 35.4103 327.515 35.879 327.201 37.2197C326.485 40.2841 323.196 40.5249 319.194 37.7709C316.083 35.5281 315.812 34.9597 316.156 30.8991C316.945 23.2057 317.108 22.9408 321.022 23.0483C323.911 23.219 324.897 23.7527 326.387 26.0201L328.17 28.7602L330.747 27.242C332.401 26.2149 333.727 24.0001 334.827 21.0253C336.151 17.0929 336.082 15.6627 334.889 12.5558C331.319 3.64053 329.264 0.332042 326.775 -0.250331C324.381 -0.810303 324.262 -0.736961 323.576 4.35464C322.862 9.13653 322.536 9.66631 319.902 10.5652C318.337 11.2092 316.874 12.2811 316.695 13.0472C316.494 13.909 315.194 14.716 313.815 14.9994C311.056 15.5662 308.357 18.4698 307.618 21.6299C306.184 27.7587 297.426 30.6591 295.583 25.5821C295.086 24.2537 293.951 21.7662 293.211 20.1792C291.737 17.4105 291.45 17.3433 286.968 17.5069C283.009 17.591 281.86 17.3222 279.926 15.6579C278.258 14.1565 277.013 13.8653 275.515 14.2221C274.423 14.5726 271.461 14.2837 268.898 13.5832L264.323 12.4123L263.45 16.147C262.957 18.2537 261.89 20.2261 260.871 20.6948C259.852 21.1636 259.038 22.488 258.865 23.6595C258.698 25.2365 258.225 25.53 256.834 25.0025C255.825 24.5645 254.759 23.5073 254.386 22.511C254.109 21.5372 253.098 19.3817 252.285 17.6765C251.274 15.5211 250.887 11.9964 251.263 6.93337C251.845 -0.303594 251.72 -0.635683 249.326 -1.19565C245.4 -2.11401 241.772 0.875354 240.54 6.14222C239.98 8.53625 239.825 10.9241 240.333 11.3458C241.81 12.8024 240.266 16.3803 237.846 17.2282C235.662 17.9293 235.228 17.6258 232.903 13.7489C230.459 9.94537 230.38 9.42176 232.044 7.48804C233.545 5.8192 233.814 4.67007 233.398 0.835695C232.998 -3.49986 233.11 -3.97866 235.074 -5.0343C236.233 -5.67218 237.824 -7.72405 238.655 -9.54968C240.362 -13.3925 244.322 -16.5062 246.908 -15.9014C250.26 -15.1174 257.41 -24.9591 255.857 -28.2514C254.97 -30.0747 257.294 -35.6922 258.826 -35.3338C259.497 -35.177 260 -33.4432 259.862 -31.5566C259.693 -26.95 262.505 -13.0613 264.135 -10.963C264.84 -10.091 265.04 -7.92325 264.614 -6.10377C263.786 -2.56061 266.251 1.14716 272.841 6.22352C277.886 10.1306 288.864 11.9914 293.051 9.6376C300.574 5.53937 307.748 -7.42768 305.123 -12.1827C303.723 -14.8332 303.959 -19.727 306.164 -30.0183C307.748 -37.2228 307.864 -39.0137 306.487 -41.76C305.696 -43.561 305.253 -45.9875 305.567 -47.3281C305.858 -48.573 305.479 -49.9747 304.78 -50.4412C304.104 -51.0034 303.702 -52.3094 303.971 -53.4585C304.217 -54.5119 303.443 -56.8141 302.224 -58.5131C301.006 -60.2121 300.129 -62.9422 300.172 -64.8512C300.365 -67.836 301.732 -68.9303 302.484 -66.5324C302.659 -65.9864 303.584 -64.76 304.503 -63.939C306.195 -62.5334 306.239 -62.725 306.599 -67.2868C307.02 -72.5413 306.478 -73.6781 302.456 -74.6189C300.062 -75.1789 299.82 -75.4376 300.954 -77.6972C302.207 -80.0302 302.207 -80.0302 299.432 -78.9623C297.462 -78.312 296.172 -78.4117 295.158 -79.2551C294.312 -79.9579 291.545 -81.5141 289.021 -82.8116C284.479 -84.9849 284.073 -84.9788 276.158 -83.0931L268.052 -81.2522L266.842 -76.0811C266.193 -73.304 264.694 -69.9177 263.569 -68.5647C261.601 -66.1969 260.982 -66.1398 256.29 -67.2373C251.501 -68.3573 250.86 -68.2044 246.775 -65.4228C244.367 -63.764 242.275 -61.7284 242.051 -60.7707C241.849 -59.9089 239.533 -56.9156 236.93 -53.9896C233.55 -50.336 231.733 -49.0441 230.843 -49.5553C230.144 -50.0218 227.407 -49.5508 224.824 -48.438C222.241 -47.3253 219.342 -46.5894 218.384 -46.8134C217.043 -47.127 216.481 -46.4505 215.876 -43.8649C215.384 -41.7581 214.451 -40.3604 213.522 -40.2747C212.666 -40.0708 211.682 -38.8869 211.324 -37.3548C210.517 -33.9073 207.203 -32.2586 203.085 -33.2218C199.733 -34.0058 199.733 -34.0058 197.898 -29.1829C196.961 -26.4731 195.711 -22.4225 195.173 -20.1242C193.717 -13.8997 192.096 -13.8751 163.661 -20.1221C150.497 -22.9992 139.777 -25.1025 139.733 -24.911C139.665 -24.6237 140.354 -23.2506 141.212 -21.7369C142.51 -19.5142 142.484 -18.1064 141.352 -14.1292C140.197 -10.0562 140.238 -8.93564 141.648 -7.19182C142.838 -5.80245 143.122 -4.42315 142.453 -2.86241L141.533 -0.65372L141.011 -3.60383C140.721 -5.38858 139.283 -7.4421 137.473 -8.77435C135.833 -9.96599 134.525 -11.282 134.637 -11.7608C134.726 -12.1439 133.779 -13.2745 132.499 -14.2808C130.352 -15.8941 129.85 -15.9104 127.656 -14.3026C126.312 -13.3041 123.959 -12.7435 122.308 -13.0285C115.301 -14.1624 111.991 -13.8258 108.969 -11.7044C107.175 -10.5082 105.255 -9.64415 104.489 -9.82334C103.723 -10.0025 102.379 -9.00401 101.423 -7.51044C100.26 -5.56049 99.2192 -4.99599 97.4955 -5.39917C94.7184 -6.04874 91.3875 -3.89881 90.7604 -1.21752C90.4244 0.218926 89.0065 1.09927 86.0339 1.717C82.5378 2.41426 81.7107 2.92779 81.5724 4.81446C81.5013 6.41382 80.0957 8.10509 77.3618 10.2936C72.4786 13.8984 72.1364 14.9294 73.6978 20.3447C74.7048 23.8122 74.6499 24.9104 73.2057 27.1986C71.6433 29.5602 71.7452 29.988 73.4303 30.9881C76.558 32.7297 78.1047 35.6166 77.4776 38.2979C76.7546 40.9568 71.0729 45.3848 67.976 45.6705C66.6415 45.7624 64.6737 48.1301 61.3698 53.6193C58.7624 57.8575 56.1999 61.9041 55.4971 62.7497C54.7719 63.6911 54.7394 64.6935 55.5178 65.6836C56.7588 67.2869 55.0095 73.0388 52.8602 74.455C51.0654 75.6512 47.6605 72.9358 46.7269 69.5864C45.5447 65.5729 42.2154 64.6932 39.6854 67.7374C38.8196 68.8479 36.4402 70.8164 34.4315 72.0635C28.3381 76.0923 27.4337 77.7998 29.0438 81.7114C30.0608 84.2723 30.9798 85.0932 32.6015 85.0686C34.1275 85.0215 35.0689 85.7467 35.4481 87.1484C35.8944 88.2628 37.1069 89.5564 38.3069 90.0391C43.1297 91.8742 41.3424 102.97 36.0615 103.957C34.8004 104.167 33.2867 105.025 32.8936 105.842C32.3823 106.732 31.2007 107.466 30.3674 107.574C29.0105 107.762 29.0229 108.573 30.3233 112.513C32.0823 118.378 31.5061 121.274 27.5967 124.601C24.323 127.37 23.7692 130.17 26.0983 132.735C26.8033 133.607 27.5207 135.289 27.635 136.528C27.7493 137.767 29.3694 140.772 31.3155 143.247C34.6268 147.658 34.7512 147.99 33.5293 152.35C32.3746 156.423 32.4379 157.448 34.7917 161.634C36.1917 164.285 37.2821 166.964 37.1029 167.73C36.9461 168.4 37.3477 169.706 37.957 170.556C38.5663 171.405 38.9006 172.998 38.6318 174.148C38.363 175.297 38.5059 176.845 38.946 177.554C40.4133 179.917 37.7589 182.629 34.5988 181.89C30.9598 181.039 24.0046 184.866 23.1025 188.291C22.7665 189.728 21.2875 191.301 19.1321 192.312L15.7217 193.938L12.8381 189.426C10.5415 185.858 9.26186 184.852 5.78589 183.736C1.25654 182.374 -4.45216 183.462 -6.1551 185.993C-7.06566 187.295 -4.39604 191.858 -2.40744 192.425C-1.92864 192.537 -0.744772 193.52 0.107012 194.629C1.5905 196.491 1.5905 196.491 -0.286102 195.446C-1.27228 194.912 -4.05553 193.857 -6.40477 193.106C-8.754 192.354 -11.6168 190.775 -12.7334 189.504C-16.1507 185.978 -18.2613 186.797 -18.7048 192.148L-19.0424 196.614L-24.2135 195.404C-28.1397 194.486 -30.1669 194.517 -32.5587 195.674L-35.7328 197.154L-36.9637 194.644C-38.2966 191.706 -41.2204 190.82 -43.5327 192.501C-46.126 194.521 -47.8894 202.491 -46.4322 205.761C-45.7658 207.23 -45.4415 209.73 -45.7999 211.262C-46.1582 212.794 -45.9684 215.869 -45.4078 218.222C-44.6433 221.431 -44.8141 224.32 -46.2476 230.449C-48.0843 238.301 -48.0226 242.355 -46.0117 242.826C-43.5219 243.408 -37.5503 258.036 -38.3567 261.483C-38.5135 262.154 -37.2663 264.162 -35.5689 265.974C-32.1741 269.596 -28.9091 277.227 -29.5587 280.004C-29.7827 280.962 -29.4035 282.364 -28.7942 283.213C-28.1849 284.063 -27.9626 286.135 -28.3658 287.858C-29.1721 291.306 -27.6763 293.979 -23.9741 295.855C-22.6049 296.478 -21.0032 298.267 -20.4549 299.809C-19.9067 301.351 -18.8124 302.718 -18.1421 302.875C-17.376 303.054 -16.9134 303.667 -17.0702 304.338C-17.2046 304.912 -16.8255 306.314 -16.1876 307.473C-15.2787 309.201 -15.3621 309.989 -16.9469 312.447C-18.6498 314.977 -18.7557 315.861 -17.6082 319.16C-16.9804 321.226 -16.6051 323.94 -16.8963 325.184C-17.1651 326.334 -16.8817 327.713 -16.2786 328.157C-15.5797 328.623 -15.0902 332.576 -15.0448 337.132C-15.0704 343.287 -14.5832 345.522 -13.2812 346.432C-10.8462 348.113 -1.23146 349.756 1.57192 348.997C4.16139 348.29 5.44655 344.955 7.98543 331.509C9.04208 325.696 9.85071 323.967 12.4093 321.232C14.0737 319.298 15.8175 317.888 16.2963 318C16.6793 318.09 17.1744 317.701 17.3312 317.03C17.4656 316.456 18.4271 315.368 19.3948 314.685C20.4806 313.929 22.0144 311.258 23.047 308.57C24.4442 304.756 24.4705 303.348 23.4882 301.502C21.5013 297.907 23.2961 296.71 29.7955 297.423C34.718 297.968 36.2888 297.729 40.1657 295.404L44.6558 292.616L47.2212 295.034C50.4917 298.324 64.3323 301.764 67.1682 300.003C69.5314 298.536 69.5538 298.44 67.9275 295.03C66.0301 291.051 66.6411 288.871 68.9416 291.126C70.3231 292.56 70.8244 292.576 72.45 291.239C73.8394 290.049 74.5685 287.796 75.68 280.885C76.9869 272.707 76.8789 271.873 74.6494 268.019C72.4424 264.069 72.4138 263.759 74.245 260.248C76.0314 256.929 76.0924 256.236 74.7595 253.298L73.2066 250.006L76.2849 248.504C77.9168 247.573 80.1517 247.086 81.2051 247.332C84.078 248.004 87.2582 246.93 87.6838 245.11C88.2438 242.716 94.107 239.24 96.5968 239.822C97.7459 240.091 99.8118 239.463 101.179 238.369C102.546 237.275 104.324 236.58 105.09 236.759C106.335 237.05 106.325 237.957 104.995 241.484C103.189 246.616 104.279 249.295 108.933 250.99C111.26 251.837 112.064 251.419 114.645 248.589C117.463 245.612 118.127 245.363 121.929 245.949C124.272 246.295 127.155 246.061 128.314 245.423C130.042 244.514 130.83 244.597 133.361 246.3C136.709 248.396 139.885 248.634 143.126 246.867C146.013 245.321 148.122 247.531 147.711 251.879C147.473 255.055 147.62 255.292 151.354 256.165C155.281 257.084 158.06 259.451 157.567 261.557C157.433 262.132 158.651 263.831 160.416 265.355C163.004 267.677 163.479 269.101 164.034 275.796C164.583 282.085 164.393 283.758 163.033 285.258C162.167 286.368 161.499 287.929 161.607 288.762C161.903 290.953 165.277 291.641 167.11 289.848C168.33 288.517 168.522 288.562 169.606 290.835C170.295 292.209 171.137 294.223 171.487 295.316C172.166 297.595 178.441 299.265 182.314 298.252C184.144 297.771 185.057 298.186 187.188 300.301C188.666 301.758 190.082 303.907 190.506 305.117C191.178 306.991 191.635 307.199 194.805 307.032C199.118 306.727 201.103 308.606 200.274 312.149C199.983 313.394 200.776 316.912 202.064 320.042C203.996 324.736 204.87 325.748 207.456 326.353C209.18 326.756 211.111 326.703 211.702 326.336C212.529 325.822 213.33 326.717 214.318 328.968C215.651 331.906 216.423 332.49 220.637 333.476C225.042 334.506 225.993 334.325 229.605 331.837C234.281 328.688 234.466 328.328 232.836 326.229C232.227 325.38 231.803 324.17 231.959 323.499C232.116 322.829 231.144 320.076 229.817 317.544C227.158 312.074 227.842 310.012 231.937 311.071C235.745 312.063 238.249 310.426 239.398 305.948C240.396 302.545 240.75 302.325 243.499 302.665C245.459 302.922 246.856 303.855 247.788 305.486C249.43 308.396 251.706 309.029 254.491 307.054C256.663 305.542 256.685 305.447 254.625 301.733C252.542 298.114 252.568 296.707 254.807 290.16C255.424 288.385 258.472 289.603 261.624 292.967C263.953 295.531 265.948 296.503 273.232 298.611C278.145 300.063 283.925 302.122 286.162 303.352C291.38 306.088 294.157 306.737 297.293 305.855C299.218 305.396 300.39 305.569 302.008 306.857C303.191 307.84 306.718 309.17 309.687 309.865C312.656 310.559 315.63 311.659 316.211 312.199C317.519 313.515 327.617 313.958 329.626 312.71C331.516 311.537 333.792 312.17 335.687 314.431C336.465 315.421 338.32 316.562 339.66 316.876C341.097 317.212 342.303 318.1 342.411 318.933C342.542 319.671 344.064 320.936 345.794 321.744C347.907 322.642 349.046 323.818 349.019 325.226C349.107 327.872 346.716 333.777 345.113 335.018C344.477 335.576 344.001 337.182 343.997 338.494C344.018 341.428 348.205 343.821 351.532 342.984C354.239 342.203 354.81 343.649 353.187 346.704C352.215 348.698 352.39 349.244 354.391 350.621C356.054 351.717 357.203 351.986 358.222 351.517C359.145 351.026 360.463 351.436 362.368 352.79L365.141 354.752L362.597 355.268C360.148 355.806 357.275 359.881 358.021 361.874C358.197 362.42 359.971 363.037 361.931 363.293C363.914 363.454 366.145 364.279 366.872 365.055C367.96 366.016 369.228 366.212 372.104 365.572C374.221 365.158 376.507 364.884 377.178 365.041C377.848 365.198 379.39 364.65 380.594 363.82C382.034 362.844 384.011 362.6 386.309 363.137C388.416 363.63 391.085 363.446 392.694 362.611C395.396 361.424 396.736 361.738 396.288 363.653C396.176 364.132 394.944 364.652 393.491 364.817C389.848 365.278 388.863 369.491 391.923 371.52C393.152 372.313 394.642 374.58 395.1 376.505C395.581 378.335 397.016 381.701 398.196 383.997C400.703 388.825 401.374 393.729 400.209 398.709C399.738 400.72 399.916 402.983 400.525 403.833C401.135 404.682 401.424 406.467 401.088 407.903C400.775 409.244 401.032 412.031 401.682 414.001C402.332 415.971 402.724 418.184 402.544 418.95C402.007 421.248 403.072 430.082 404.127 432.046C405.55 434.601 409.891 434.607 411.786 432.121C413.939 429.392 417.099 430.131 416.382 433.196C415.688 436.164 419.66 441.638 422.498 441.595C423.618 441.554 424.988 442.178 425.619 442.931C426.838 444.63 432.329 444.905 434.286 443.444C435.04 442.812 436.42 442.529 437.259 442.826C439.822 443.526 445.976 451.329 445.748 453.599C445.671 454.793 447.157 458.372 449.115 461.658C451.074 464.944 452.537 468.62 452.46 469.814C452.27 471.486 453.314 472.639 457.118 474.943C461.547 477.595 462.314 477.774 466.075 477.24C468.287 476.849 470.145 476.677 470.292 476.914C470.343 477.128 470.948 479.289 471.678 481.783C473.392 487.84 477.382 489.783 482.925 487.242C485.509 486.129 487.795 485.856 490.476 486.483C492.87 487.043 495.015 486.938 495.91 486.138C496.855 485.551 499.061 484.754 501.06 484.413C502.963 484.05 504.691 483.142 504.87 482.375C505.071 481.514 505.994 481.022 507.048 481.269C508.005 481.493 509.621 481.063 510.493 480.358C513.441 478.118 521.895 475.652 524.577 476.279C526.3 476.682 527.392 476.332 528.089 475.08C528.668 473.903 529.878 473.479 531.41 473.837C532.655 474.128 534.44 473.839 535.289 473.23C537.365 471.695 538.013 471.948 540.788 475.627C542.859 478.434 543.484 478.782 545.815 478.318C549.931 477.563 550.917 478.097 555.013 483.903C559.549 490.418 562.868 492.204 576.884 496.19L587.666 499.318L593.536 496.247C598.15 493.791 599.421 492.674 599.981 490.28C600.362 488.652 600.14 486.58 599.53 485.731C598.921 484.881 598.654 483.001 598.99 481.564C599.326 480.128 599.059 478.247 598.45 477.398C597.062 475.558 598.746 471.811 601.908 469.521C603.208 468.714 604.287 467.552 604.399 467.074C604.534 466.499 606.16 465.162 608.028 464.084C611.314 462.126 611.601 462.193 613.276 464.1C614.319 465.253 616.94 466.573 619.142 467.088C621.728 467.693 623.509 468.715 624.271 470.206C625.253 472.052 626.093 472.35 629.432 472.323C637.445 472.177 641.966 476.164 644.598 486.071C645.707 489.967 651.17 494.678 655.936 495.894C661.394 497.171 669.548 496.856 672.339 495.287C676.03 493.322 687.925 494.286 692.332 497.034C693.995 498.13 697.905 499.55 700.873 500.244C705.831 501.505 706.53 501.971 707.744 504.982C709.941 509.839 713.114 511.389 723.99 512.822C742.058 515.028 741.844 515.079 746.902 512.02C749.479 510.502 753.273 508.966 755.271 508.625C760.412 507.807 768.644 503.269 769.159 501.066C769.675 498.864 777.32 493.38 781.289 492.389C783.76 491.756 784.504 492.03 787.593 494.369L791.02 496.989L796.531 495.45C801.615 494.013 802.595 494.141 807.896 496.088C817.13 499.359 824.004 498.038 828.327 492.08C829.519 490.439 831.55 489.097 833.121 488.858C836.668 488.375 837.676 484.065 835.489 478.302C834.048 474.531 834.08 473.528 835.457 471.527C836.39 470.13 838.001 466.264 839.235 462.715C840.351 459.239 841.94 455.47 842.784 454.455C844.981 451.535 844.573 445.076 841.814 440.896C839.884 437.92 839.281 437.476 837.407 438.148C834.772 439.047 834.817 438.855 838.374 432.718C840.818 428.745 842.112 427.533 845.742 426.261C848.258 425.435 852.642 423.532 855.625 422.007C861.213 419.274 865.74 418.919 875.4 420.371C878.126 420.806 883.1 421.566 886.637 421.989C892.494 422.854 893.311 423.247 896.486 426.515C898.353 428.466 899.746 430.711 899.59 431.382C899.41 432.148 900.409 433.492 901.689 434.499C905.477 437.304 910.498 444.336 910.512 446.865C910.537 448.487 911.462 449.713 913.288 450.544C916.004 451.886 922.39 460.854 924.159 465.813C925.409 469.539 929.95 471.713 935.113 470.799C937.112 470.459 939.178 469.831 939.695 469.346C940.752 468.28 951.478 470.789 955.856 473.227C958.263 474.598 959.603 474.911 960.549 474.325C961.258 473.884 962.519 473.674 963.381 473.876C965.583 474.391 968.919 480.423 968.337 482.913C968.001 484.35 968.859 485.863 971.227 487.831C975.528 491.463 979.263 492.337 980.515 490.004C981.049 489.018 981.921 488.313 982.591 488.469C983.166 488.604 986.301 487.721 989.408 486.529C994.508 484.591 995.239 484.055 995.32 481.549C995.385 479.544 996.666 477.521 1000.14 473.889C1009.27 464.208 1009.89 464.151 1013.87 471.343C1016.2 475.625 1016.48 476.599 1015.2 477.716C1012.29 480.265 1011.94 481.296 1013.22 483.614C1014.79 486.405 1015.72 492.784 1015.13 496.181C1014.81 497.521 1014.99 499.38 1015.38 500.28C1016.34 502.222 1016.23 507.448 1015.28 512.782C1014.89 514.911 1014.86 517.631 1015.16 518.914C1016.14 522.072 1012.96 524.864 1009.32 524.013C1005.78 523.184 1000.78 525.55 1000.13 528.327C999.866 529.476 998.342 531.241 996.71 532.172C992.619 534.548 991.774 538.593 994.841 541.027C996.121 542.033 997.757 544.537 998.407 546.507C999.035 548.573 1000.89 552.743 1002.58 555.866C1005.75 562.164 1005.7 564.979 1001.99 570.069C998.692 574.652 998.464 576.922 1001.09 578.647C1005.09 581.401 1007.04 579.129 1010.87 567.501C1012.3 563.09 1012.79 562.295 1013.65 563.403C1014.96 565.125 1016.88 564.666 1017.4 562.464C1017.67 561.315 1017.98 561.286 1018.64 562.349C1019.89 564.358 1021.94 564.637 1027.05 563.51C1029.41 562.949 1032.29 562.714 1033.25 562.938C1034.49 563.23 1036.38 561.65 1039.73 557.687C1042.3 554.451 1045.45 550.945 1046.72 549.828C1048.76 547.984 1049.54 545.539 1054.15 525.812C1057.36 512.118 1060.09 502.153 1061.51 499.555C1063.98 494.579 1065.23 484.064 1064.58 472.599C1064.05 463.185 1065.11 452.624 1067.81 441.944C1070.02 433.37 1069.99 433.061 1067.9 429.037C1066.7 426.837 1065.4 423.302 1065.09 421.208C1064.35 416.591 1061.62 410.096 1056.42 400.394C1052 392.089 1051.3 388.592 1052.09 380.494C1052.72 373.471 1052.81 373.493 1060.29 379.081C1064.01 381.767 1065.83 383.911 1066.34 386.05C1066.84 387.784 1069.5 393.254 1072.39 398.172C1078 407.867 1080.45 413.388 1081.23 417.813C1081.57 419.406 1083.54 422.191 1085.98 424.277C1088.98 426.999 1090.67 429.716 1092.24 434.225C1093.36 437.619 1095.29 441.908 1096.56 443.821C1097.81 445.829 1098.7 448.058 1098.5 448.92C1098.32 449.686 1100.14 453.547 1102.56 457.446C1106.23 463.354 1107.3 464.411 1108.94 463.886C1111.81 462.84 1112.14 460.998 1110.4 456.349C1109.53 454.024 1109.08 451.192 1109.52 450.184C1110.48 447.784 1115.41 447.422 1118.76 449.518C1123.07 452.244 1124.47 448.43 1120.84 443.642C1118.24 440.104 1116.03 439.183 1113.69 440.555C1112.48 441.384 1111.95 441.058 1111.23 438.97C1110.64 437.619 1109.42 436.325 1108.47 436.101C1107.51 435.877 1106.57 435.152 1106.39 434.606C1106.24 433.964 1104.8 433.223 1103.36 432.887C1101.73 432.506 1099.53 430.679 1097.56 427.894C1095.03 424.474 1094.48 422.931 1095.04 420.537C1095.44 418.814 1095.08 415.599 1094.19 413.37C1092.43 408.816 1093.26 402.244 1095.55 402.781C1097.57 403.252 1102.77 400.429 1103.17 398.705C1103.4 397.748 1102.2 395.953 1100.32 394.503C1095.56 390.663 1089.73 384.955 1088.35 382.614C1087.62 381.432 1085.7 379.267 1083.94 377.743C1082.27 376.242 1079.65 373.61 1078.15 371.843C1076.64 370.077 1074.27 368.109 1073 367.508C1069.88 366.172 1065.72 359.341 1064.07 352.997C1063.18 349.456 1062.13 347.898 1059.97 346.786C1058.36 345.904 1056.68 343.997 1056.11 342.55C1055.56 341.008 1054.28 339.596 1053.32 339.372C1052.36 339.148 1050.95 337.404 1050.07 335.581C1048.71 332.334 1042.7 327.797 1041.16 328.751C1040.71 328.948 1040.38 330.79 1040.22 332.773C1040.17 335.588 1040.49 336.371 1042.31 336.796C1043.74 337.132 1045.18 338.78 1046.31 341.268L1048.11 345.224L1045.82 344.687C1043.8 344.216 1043.29 344.701 1041.95 347.823C1040.78 350.68 1039.84 351.672 1037.77 351.894C1034.22 352.378 1030.1 351.414 1029.07 349.76C1028.56 348.933 1025.85 347.996 1022.05 347.41C1017.39 346.622 1014.81 346.828 1011.18 348.1L1006.51 349.936L1008.15 355.875C1010.1 363.098 1010.03 363.385 1007.26 363.141C1005.97 363.041 1004.38 363.781 1003.52 364.891C1001.76 367.208 1000.47 367.108 1001.06 364.619C1001.3 363.565 1000.45 361.145 999.23 359.04C997.374 356.182 996.601 355.598 995.346 356.213C993.523 357.1 992.295 361.054 993.53 362.252C994.037 362.674 994.174 363.817 993.972 364.679C993.406 366.667 990.459 361.13 989.354 355.922C988.873 354.093 988.252 352.433 987.869 352.343C987.485 352.253 985.64 353.236 983.749 354.409C981.859 355.583 979.726 356.498 978.864 356.297C978.098 356.118 976.6 356.474 975.441 357.112C974.282 357.75 972.947 357.842 972.558 357.347C971.397 356.267 974.779 346.554 977.035 344.254C980.088 341.13 987.005 320.629 985.774 318.119C984.74 316.059 990.885 294.973 993.415 291.929C994.983 289.973 994.999 289.471 993.606 287.226C991.551 283.918 992.889 277.767 996.028 275.572C998.296 274.082 998.363 273.795 997.593 270.181C996.131 263.476 998.349 258.743 1005.92 252.735C1013.98 246.339 1019.88 242.671 1021.61 243.074C1022.57 243.298 1024.83 243.12 1026.64 242.735C1029.65 241.926 1029.7 241.734 1028.85 239.314C1027.86 236.657 1028.6 235.62 1031.09 236.203C1033.3 236.718 1040.59 231.86 1040.07 230.222C1039.77 229.343 1040.03 229.101 1040.82 229.59C1041.52 230.056 1043.21 229.744 1044.58 229.056L1047.14 227.633L1045.75 224.481C1044.07 220.452 1045.72 217.707 1050.36 216.873C1052.36 216.533 1054.02 215.911 1054.13 215.432C1054.31 214.666 1063.54 211.472 1064.69 211.741C1064.88 211.786 1064.81 212.98 1064.49 214.32C1063.78 217.385 1065.29 219.962 1068.45 220.701C1070.46 221.171 1071.2 220.635 1072.96 217.412C1074.15 215.366 1076.07 213.19 1077.32 212.575C1079.26 211.615 1079.68 210.702 1080.05 206.951C1080.46 202.603 1080.6 202.434 1083.16 202.729C1085.12 202.986 1086.04 202.494 1086.66 200.72C1087.17 199.424 1088.19 198.048 1088.98 197.726C1089.78 197.309 1090.91 195.956 1091.55 194.491C1092.57 192.304 1092.35 191.95 1090.15 191.435C1088.81 191.121 1086.4 191.468 1084.81 192.208C1081.78 193.518 1079.76 192.237 1080.43 189.364C1080.63 188.502 1080.13 186.768 1079.34 185.373C1078.34 183.623 1078.25 180.976 1078.98 175.693C1079.52 171.677 1079.62 167.358 1079.19 166.148C1078.67 164.915 1078.64 162.483 1079.08 160.567C1079.62 158.269 1079.38 156.698 1078.24 155.523C1076.26 153.645 1077.27 147.618 1079.84 145.694C1080.8 145.012 1082.58 142.599 1083.72 140.339C1085.64 136.851 1086.28 136.293 1087.72 137.034C1089.07 137.753 1089.97 137.358 1091.37 135.261C1093.09 132.635 1094.89 131.844 1094.42 133.855C1094.13 135.1 1099.75 145.2 1100.9 145.469C1101.38 145.581 1102.03 144.522 1102.48 143.012C1103.04 140.618 1103.21 140.758 1103.91 144.66L1104.74 148.894L1106.91 145.259C1108.09 143.213 1109.25 139.545 1109.5 136.774C1110.9 124.277 1111.04 121.985 1110.45 121.039C1109.45 119.289 1109.98 118.303 1111.61 118.684C1112.56 118.908 1113.27 118.062 1113.71 116.147C1114.25 113.849 1114 113.185 1112.28 112.782C1111.04 112.49 1108.66 110.117 1107.05 107.518C1104.27 103.433 1104.06 102.577 1105.29 99.9346C1106.79 96.5481 1109.42 95.6493 1108.68 98.8094C1108.1 101.299 1114.58 112.007 1117.66 113.535C1118.91 114.231 1120.64 116.757 1121.56 119.296C1122.91 123.045 1122.98 124.475 1121.75 127.118C1120.95 128.847 1119.82 131.513 1119.19 132.882C1118.53 134.442 1118.43 136.138 1119.14 137.415C1120.27 139.497 1122.68 159.857 1122.08 162.442C1121.87 163.304 1122.46 165.967 1123.43 168.314C1124.28 170.734 1125.09 176.781 1125.21 181.86C1125.26 189.851 1125.04 191.214 1123.58 192.286C1122.49 193.042 1121.83 194.603 1121.78 196.512C1121.67 198.303 1121.14 199.694 1120.48 199.943C1119.81 200.192 1119.02 201.42 1118.71 202.761C1118.33 204.389 1118.74 205.194 1119.99 205.485C1122 205.955 1123.98 210.458 1123.35 213.139C1123.1 214.192 1123.46 215.69 1124.07 216.539C1124.68 217.389 1124.99 219.078 1124.7 220.323C1124.36 221.759 1125.8 225.53 1128.79 230.876C1131.37 235.417 1133.36 239.418 1133.25 239.897C1132.87 241.525 1141.48 249.195 1148.92 253.662C1153.16 256.269 1157.19 259.333 1157.73 260.47C1159.33 263.571 1162.62 266.765 1170.39 272.42C1174.25 275.343 1178.11 278.671 1179.02 279.994C1179.85 281.198 1181.27 282.44 1182.23 282.664C1183.09 282.866 1185.05 284.434 1186.46 286.178C1187.96 287.944 1190.3 289.603 1192.03 290.006C1194.04 290.476 1195.39 291.601 1196.33 293.638L1197.74 296.694L1198.94 291.523C1199.62 288.65 1200.09 283.609 1200.06 280.27C1200.03 276.931 1200.33 273.061 1200.55 271.698C1201 269.783 1199.81 267.082 1196.08 261.461C1190.24 252.723 1189.94 251.44 1191.89 246.544C1193.04 243.783 1193.84 242.96 1195.51 243.149C1198.69 243.387 1199.39 239.106 1196.43 237.505C1189.62 233.792 1186.39 228.187 1186.7 220.787C1186.94 217.205 1187.36 216.698 1191.78 214.198C1195.97 211.844 1196.41 211.241 1196.16 208.859C1195.65 205.002 1192.26 201.786 1188.75 201.672C1186.84 201.629 1185.57 201.029 1184.98 200.083C1184.59 199.183 1183.35 197.985 1182.17 197.407C1180.01 196.294 1177.31 189.704 1177.92 187.118C1178.09 186.352 1178.97 185.647 1179.92 185.466C1180.75 185.357 1182.21 184.286 1183.01 183.057C1184.22 181.321 1184.13 180.392 1182.95 178.096C1181.36 175.4 1176.78 173.419 1175.32 174.896C1173.21 177.027 1165.84 169.649 1166.65 166.201C1167.01 164.669 1162.15 156.06 1161.38 156.787C1158.29 159.601 1155.35 163.558 1155.46 164.797C1155.81 167.201 1154.01 166.274 1150.15 162.039C1146.19 157.782 1145.72 156.357 1146.75 151.952C1147.31 149.558 1146.51 147.352 1143.11 141.607C1139.12 134.917 1138.92 134.061 1140.19 131.227C1140.92 129.379 1142.99 127.439 1145.29 126.259C1149.76 123.972 1150.27 123.082 1147.79 121.593C1146.83 120.963 1146.21 119.708 1146.46 118.655C1146.7 117.602 1146.65 115.67 1146.35 114.387C1145.76 112.129 1145.76 112.129 1147.15 113.969C1147.93 114.959 1149.67 116.578 1151.05 117.607C1153.19 119.22 1153.41 119.17 1153.97 116.775C1154.28 115.435 1154.02 112.648 1153.28 110.655C1152.28 107.593 1152.33 106.495 1153.89 103.728C1155.12 101.491 1155.5 99.8627 1155.01 98.9398C1154.52 98.0169 1155.33 96.6925 1157.54 94.5835C1159.33 92.9819 1161.23 90.9014 1161.77 89.9152C1163.05 87.8919 1166.93 87.6897 1169.2 89.6351C1170.56 90.7596 1171.37 90.7473 1173.56 89.1394L1176.4 87.3787L1174.17 83.5242C1171.84 79.6473 1171.09 73.8143 1172.25 68.8347C1172.59 67.3983 1172.12 64.6621 1171.13 62.8163C1170.25 60.993 1169.58 57.8066 1169.76 55.7284C1169.83 53.7235 1169.8 49.0722 1169.53 45.4741C1169.36 41.8984 1169.66 36.7172 1170.29 34.036C1170.82 31.3322 1171.07 27.2492 1170.8 24.9632C1170.43 22.6549 1170.29 19.7944 1170.48 18.5271C1170.56 17.3332 1170.08 15.5036 1169.21 14.4912C1167.8 12.7473 1167.8 12.7473 1169.93 13.1443C1171.46 13.5027 1172.62 12.8649 1173.85 11.033C1174.85 9.34801 1176.39 8.39428 1177.92 8.34718C1179.85 8.29397 1180.51 7.63992 1181.09 5.15012C1181.49 3.42638 1181.29 1.25861 1180.59 0.38669C1179.88 -0.485227 1179.21 -2.3596 1179 -3.62069C1178.75 -5.59698 1178.34 -5.99625 1176.73 -5.56618C1175.63 -5.21557 1173.89 -5.52296 1172.81 -6.07904C1171.63 -6.6575 1169.6 -6.6267 1167.94 -6.00508C1166.4 -5.45679 1164.95 -5.29154 1164.73 -5.64603C1164.41 -6.02292 1163.48 -5.93723 1162.56 -5.44609C1161.21 -4.85301 1160.82 -4.94259 1160.76 -5.96746C1160.65 -6.80073 1158.54 -7.69893 1154.81 -8.57251C1149.83 -9.73725 1148.71 -9.69635 1146.58 -7.97042C1145.22 -6.87609 1143.34 -6.20352 1142.19 -6.47231C1140.37 -6.89788 1140.37 -6.89788 1143.17 -9.77919C1145.68 -12.3222 1145.98 -13.1617 1146.08 -17.8864C1146.25 -22.0876 1145.5 -24.4855 1142.54 -29.5216C1138.96 -35.4073 1138.65 -35.7841 1134.97 -36.0383C1131.48 -36.2477 1131.15 -36.5289 1130.82 -39.0287C1130.58 -40.5995 1130.59 -41.9116 1130.7 -41.985C1131.84 -42.5271 1139.38 -41.0672 1140.47 -40.1057C1141.36 -39.189 1142.43 -39.4438 1144.41 -41.0007C1146.65 -42.8 1147.23 -43.9777 1147.6 -47.7286C1148.14 -53.462 1149.41 -54.1732 1155.59 -52.5258C1159.19 -51.4831 1160.52 -51.5749 1161.72 -52.8098C1166.51 -57.7491 1168.78 -59.2387 1171.97 -59.502C1174.85 -59.7367 1175.82 -60.4193 1177.68 -63.6204C1178.93 -65.9534 1179.71 -68.3983 1179.52 -69.7553C1179.31 -71.0164 1179.59 -73.0722 1180.19 -74.3457L1181.13 -76.6501L1177.94 -74.6693L1174.75 -72.6885L1171.69 -78.1525C1169.48 -82.1027 1168.51 -83.1376 1168.12 -81.9151C1167.81 -80.5744 1167.38 -80.4725 1166.29 -81.434C1165.4 -82.3507 1165.18 -84.0173 1165.74 -86.4114C1166.38 -89.5939 1166.21 -90.1399 1164.63 -90.3068C1163.03 -90.3779 1162.89 -90.6141 1164.09 -91.4436C1165.22 -92.3911 1165.19 -93.1062 1163.7 -95.3736C1162.65 -96.9321 1162.06 -99.1896 1162.35 -100.434C1162.94 -102.924 1162.65 -102.991 1158.53 -102.237ZM1139.51 -7.09947C1139.4 -6.62064 1138.43 -6.34345 1137.28 -6.61225C1136.22 -6.85863 1135.76 -7.4718 1136.16 -7.88344C1136.58 -8.39082 1137.63 -8.54985 1138.4 -8.37067C1139.16 -8.19148 1139.65 -7.67405 1139.51 -7.09947ZM1136.48 -2.75939C1136.37 -2.28055 1135.77 -1.91376 1135.2 -2.04816C1134.72 -2.16017 1134.64 -2.68374 1135.04 -3.09538C1135.46 -3.60276 1136.03 -3.8738 1136.32 -3.80661C1136.51 -3.76179 1136.61 -3.33397 1136.48 -2.75939ZM691.926 26.3773C689.707 26.3633 689.12 25.4181 690.318 24.1832C690.976 23.5291 691.528 23.7593 692.38 24.8675C693.547 26.3526 693.429 26.426 691.926 26.3773ZM703.978 78.4846C703.073 80.1921 703.249 80.7381 704.781 81.0965C707.749 81.7909 706.698 83.262 701.976 84.8844C699.555 85.7323 697.192 87.1995 696.563 88.1633C696.052 89.0538 694.369 89.7711 692.888 89.6267C691.384 89.578 689.239 89.6822 688.073 89.9146C686.193 90.1818 686.215 90.086 688.808 88.0665C690.316 86.8032 691.677 85.3035 691.856 84.5374C692.013 83.867 693.533 83.4145 695.154 83.3898C697.277 83.3814 698.296 82.9127 698.632 81.4763C699.214 78.9865 703.348 74.7013 704.34 75.6404C704.752 76.0396 704.556 77.3069 703.978 78.4846ZM518.604 85.1205C519.191 86.0658 519.497 87.3493 519.363 87.9239C519.228 88.4985 519.646 89.3032 520.249 89.7473C520.948 90.2138 520.763 90.5744 519.502 90.7844C518.55 90.9659 516.938 90.0839 515.704 88.8861C514.006 87.075 513.774 85.9096 514.535 82.6538C515.723 77.5784 517.185 76.5065 517.483 80.4142C517.626 81.9627 518.136 84.1019 518.604 85.1205ZM1044.68 354.723C1045.1 355.528 1046.33 358.038 1047.51 360.334C1049.92 365.14 1049.7 367.815 1046.92 367.165C1045.77 366.897 1044.7 365.434 1044.24 363.509C1043.71 361.465 1042.71 360.121 1041.47 359.829C1039.74 359.426 1039.6 359.19 1041.06 358.118C1042.28 357.193 1042.46 356.427 1041.94 354.789C1041.32 353.128 1041.5 352.768 1042.65 353.037C1043.42 353.216 1044.34 354.037 1044.68 354.723Z" fill="#007C93"/>
<path d="M519.244 -28.1536C516.558 -27.4687 513.474 -26.3722 512.433 -25.8077C509.9 -24.481 500.408 -27.5093 498.529 -30.2718C496.848 -32.5841 494.741 -33.0769 492.665 -31.5424C491.439 -30.6173 489.935 -30.666 487.056 -31.7434C482.571 -33.2973 477.064 -33.0704 473.587 -31.1568C471.955 -30.2255 470.547 -30.2518 468.913 -31.0381C467.301 -31.92 466.564 -31.7896 466.317 -30.7362C465.914 -29.0125 464.743 -29.1855 463.642 -30.9579C462.395 -32.9666 460.504 -31.7928 460.024 -28.8752C459.483 -25.2648 458.093 -24.0748 455.125 -24.7692C453.688 -25.1051 452.855 -24.997 453.075 -24.6426C453.882 -23.3428 444.865 -20.1999 439.977 -20.0302C434.684 -19.8542 432.895 -18.2526 435.033 -15.7326C435.811 -14.7425 435.964 -14.1008 435.39 -14.2351C434.719 -14.3919 434.106 -13.9294 433.927 -13.1633C433.703 -12.2057 432.605 -12.2605 429.438 -13.4051C425.41 -14.7513 425.196 -14.7004 424.659 -12.4021C424.233 -10.5826 423.716 -10.0976 422.848 -10.7047C422.149 -11.1712 420.313 -11.0955 418.653 -10.4739C415.996 -9.47929 415.833 -9.21441 416.95 -7.94321C418.044 -6.57625 417.977 -6.28897 416.013 -5.23332C414.854 -4.59546 411.661 -4.33221 408.89 -4.57633C403.585 -5.21131 401.503 -4.08231 399.138 0.41458C398.233 2.12206 398.517 3.50135 400.711 6.64071C403.984 11.6482 404.256 16.9638 401.155 18.5616C399.9 19.177 398.798 20.4343 398.574 21.3919C398.126 23.3071 403.121 31.7475 404.94 32.173C405.611 32.3298 406 32.8249 405.888 33.3037C405.776 33.7825 406.599 34.581 407.799 35.0638C409.095 35.5689 409.755 36.6323 409.633 38.0178C409.428 40.1917 409.524 40.2141 413.138 39.4435C417.084 38.5485 417.826 37.106 416.688 32.9009C416.089 31.1447 416.352 29.5901 417.285 28.1923C418.077 26.9637 418.435 25.4315 418.18 24.3619C417.547 21.8906 420.43 13.8791 422.372 12.9192C423.272 12.5238 424.093 11.6048 424.273 10.8388C424.429 10.1684 425.47 9.60392 426.518 9.44486C427.734 9.42636 428.909 8.28729 429.459 6.79991C430.144 4.73795 430.948 4.32018 433.291 4.66623C435.347 4.94508 437.03 4.22769 439.196 2.3102C440.77 0.759514 442.661 -0.414284 443.427 -0.235093C444.097 -0.0783004 445.403 -0.479844 446.253 -1.08914C447.361 -1.94093 448.076 -1.97566 448.663 -1.03038C449.837 0.860187 450.884 0.701132 451.377 -1.40562C451.623 -2.459 452.495 -3.16405 453.261 -2.98486C454.027 -2.80567 454.787 -3.03193 454.922 -3.6065C455.034 -4.0853 457.138 -5.31007 459.558 -6.15795C462.001 -7.1016 464.128 -8.42212 464.307 -9.18821C464.509 -10.0501 465.173 -10.2987 465.945 -9.71408C466.644 -9.24761 467.359 -9.28234 467.471 -9.76115C467.606 -10.3357 469.227 -10.3604 471.143 -9.9124C475.548 -8.88205 478.683 -9.76467 478.365 -11.8591C478.047 -13.9535 480.371 -14.8238 484.202 -13.9278C485.83 -13.5471 487.902 -13.7694 488.751 -14.3787C489.86 -15.2305 492.248 -15.076 497.323 -13.8888C501.153 -12.9929 504.595 -12.5919 505.112 -13.0769C505.629 -13.5619 506.565 -13.2421 507.867 -12.3316C509.411 -11.1623 510.583 -10.9893 513.15 -11.6009C514.979 -12.0819 517.53 -12.1923 518.679 -11.9235C520.02 -11.6099 522.75 -12.4864 525.372 -14.1961C528.703 -16.346 529.945 -17.7724 530.528 -20.2622C532.022 -27.0836 527.417 -30.2818 519.244 -28.1536Z" fill="#007C93"/>
<path d="M715.864 64.8019C713.006 66.6583 711.81 69.6107 713.63 70.0363C714.204 70.1707 715.292 71.1322 715.975 72.0999C717.194 73.799 717.599 73.7928 720.891 72.2399C723.424 70.9132 724.666 69.4868 725.114 67.5716C725.719 64.986 725.477 64.7273 722.125 63.9433C719.539 63.3385 717.659 63.6057 715.864 64.8019Z" fill="#007C93"/>
</svg>
