<svg width="80" height="80" viewBox="0 0 80 80" fill="none" xmlns="http://www.w3.org/2000/svg">
<path opacity="0.2" d="M40 70C56.5685 70 70 56.5685 70 40C70 23.4315 56.5685 10 40 10C23.4315 10 10 23.4315 10 40C10 56.5685 23.4315 70 40 70Z" fill="#008AA4"/>
<path d="M40 70C56.5685 70 70 56.5685 70 40C70 23.4315 56.5685 10 40 10C23.4315 10 10 23.4315 10 40C10 56.5685 23.4315 70 40 70Z" stroke="#008AA4" stroke-width="2" stroke-miterlimit="10"/>
<path d="M31.1621 31.1611L48.8398 48.8388" stroke="#008AA4" stroke-width="2" stroke-linecap="round" stroke-linejoin="round"/>
<path d="M48.8379 31.1611L31.1602 48.8388" stroke="#008AA4" stroke-width="2" stroke-linecap="round" stroke-linejoin="round"/>
</svg>
