<svg width="17" height="16" viewBox="0 0 17 16" fill="none" xmlns="http://www.w3.org/2000/svg">
<g clip-path="url(#clip0_462_1587)">
<path fill-rule="evenodd" clip-rule="evenodd" d="M12.756 15.186C12.9707 15.338 13.2473 15.376 13.494 15.2827C13.7407 15.1887 13.922 14.978 13.9767 14.7227C14.556 12 15.9613 5.10867 16.4887 2.63201C16.5287 2.44534 16.462 2.25134 16.3153 2.12667C16.1687 2.00201 15.9653 1.96601 15.784 2.03334C12.9887 3.06801 4.37999 6.29801 0.861324 7.60001C0.637991 7.68267 0.492657 7.89734 0.499991 8.13267C0.507991 8.36867 0.666657 8.57334 0.895324 8.64201C2.47332 9.11401 4.54466 9.77067 4.54466 9.77067C4.54466 9.77067 5.51266 12.694 6.01732 14.1807C6.08066 14.3673 6.22666 14.514 6.41932 14.5647C6.61132 14.6147 6.81666 14.562 6.95999 14.4267C7.77066 13.6613 9.02399 12.478 9.02399 12.478C9.02399 12.478 11.4053 14.224 12.756 15.186ZM5.41599 9.40134L6.53532 13.0933L6.78399 10.7553C6.78399 10.7553 11.1087 6.85467 13.574 4.63134C13.646 4.56601 13.656 4.45667 13.596 4.38001C13.5367 4.30334 13.4273 4.28534 13.3453 4.33734C10.488 6.16201 5.41599 9.40134 5.41599 9.40134Z" fill="#53A6DB"/>
</g>
<defs>
<clipPath id="clip0_462_1587">
<rect width="16" height="16" fill="white" transform="translate(0.5)"/>
</clipPath>
</defs>
</svg>
