<svg width="17" height="16" viewBox="0 0 17 16" fill="none" xmlns="http://www.w3.org/2000/svg">
<path d="M12.3392 9.19381C12.308 9.17885 11.1415 8.60446 10.9343 8.52987C10.8497 8.49948 10.759 8.46982 10.6626 8.46982C10.5051 8.46982 10.3728 8.54831 10.2697 8.70249C10.1532 8.87568 9.80046 9.288 9.69147 9.41116C9.67724 9.42742 9.65781 9.44685 9.64617 9.44685C9.63573 9.44685 9.45521 9.37252 9.40056 9.34878C8.14929 8.80524 7.19952 7.49818 7.06929 7.27776C7.05069 7.24608 7.04991 7.23169 7.04976 7.23169C7.05433 7.21491 7.09641 7.17273 7.11812 7.15096C7.18165 7.0881 7.25049 7.00524 7.31708 6.92509C7.34862 6.88711 7.3802 6.84909 7.41121 6.81324C7.50784 6.70083 7.55085 6.61356 7.60072 6.51247L7.62685 6.45995C7.74861 6.21802 7.64461 6.01387 7.611 5.94795C7.58342 5.89278 7.0909 4.7041 7.03854 4.57922C6.91262 4.27787 6.74623 4.13756 6.51501 4.13756C6.49355 4.13756 6.51501 4.13756 6.42503 4.14135C6.31547 4.14597 5.71885 4.22452 5.45506 4.3908C5.17532 4.56717 4.70207 5.12935 4.70207 6.11802C4.70207 7.00784 5.26675 7.848 5.50919 8.16753C5.51521 8.17558 5.52628 8.19195 5.54233 8.21543C6.4708 9.57137 7.62825 10.5763 8.8016 11.045C9.93121 11.4962 10.4661 11.5484 10.7702 11.5484C10.7703 11.5484 10.7703 11.5484 10.7703 11.5484C10.8981 11.5484 11.0004 11.5383 11.0906 11.5294L11.1478 11.524C11.5381 11.4894 12.3956 11.045 12.5907 10.503C12.7443 10.076 12.7849 9.6095 12.6826 9.4402C12.6126 9.32509 12.4919 9.26717 12.3392 9.19381Z" fill="#41C345"/>
<path d="M8.64203 0C4.30873 0 0.783328 3.49891 0.783328 7.79964C0.783328 9.19065 1.15559 10.5523 1.86078 11.7439L0.511016 15.7255C0.485873 15.7997 0.504575 15.8818 0.559484 15.9377C0.59912 15.9782 0.652886 16 0.707796 16C0.728835 16 0.750029 15.9968 0.770705 15.9902L4.9224 14.671C6.0585 15.278 7.34255 15.5984 8.64209 15.5984C12.975 15.5984 16.5 12.0999 16.5 7.79964C16.5 3.49891 12.975 0 8.64203 0ZM8.64203 13.9737C7.41923 13.9737 6.23486 13.6206 5.21679 12.9526C5.18255 12.9301 5.14281 12.9185 5.10281 12.9185C5.08167 12.9185 5.06047 12.9218 5.03985 12.9283L2.96011 13.5894L3.63149 11.6087C3.6532 11.5446 3.64234 11.4739 3.60234 11.4192C2.82707 10.3599 2.41725 9.10831 2.41725 7.79964C2.41725 4.39481 5.20967 1.62473 8.64198 1.62473C12.0739 1.62473 14.866 4.39481 14.866 7.79964C14.866 11.2041 12.074 13.9737 8.64203 13.9737Z" fill="#41C345"/>
</svg>
