<svg width="1200" height="486" viewBox="0 0 1200 486" fill="none" xmlns="http://www.w3.org/2000/svg">
<g id="Frame 37">
<path id="Vector" d="M1156.62 146.443C1155.23 146.69 1152.87 147.765 1151.55 148.892C1150.15 149.999 1147.76 150.781 1146.23 150.804C1143.36 150.802 1136.62 155.063 1136.11 157.24C1135.96 157.875 1135.56 158.356 1135.11 158.25C1134.75 158.165 1133.44 160.06 1132.19 162.542C1129.43 168.211 1130.49 169.415 1139.6 170.972L1141.89 171.412L1139.21 172.605C1136.21 174.006 1134.51 173.897 1133.94 172.233C1133.8 171.625 1132.5 171.034 1131.08 170.988C1129.56 170.921 1128.11 170.197 1127.39 169.169C1126.23 167.559 1125.78 167.453 1122.36 168.183C1120.24 168.645 1117.32 169.684 1115.79 170.475C1114.27 171.267 1111.77 172.118 1110.31 172.253C1108.75 172.367 1105.74 173.385 1103.54 174.594C1101.25 175.781 1096.77 178.177 1093.48 179.989C1090.18 181.802 1084.92 183.825 1081.88 184.55C1076.32 185.832 1058.15 196.029 1057.66 198.115C1057.53 198.66 1055.72 201.105 1053.52 203.557C1051.41 206.029 1049.42 208.816 1049.21 209.724C1048.99 210.631 1047.7 211.667 1046.3 211.915C1044.9 212.162 1043.61 213.198 1043.4 214.106C1043.19 215.013 1041.81 216.412 1040.28 217.204C1038.31 218.273 1037.33 219.576 1036.8 221.844C1036.17 224.565 1036.33 225.083 1038.24 225.528C1039.42 225.804 1040.47 226.624 1040.57 227.414C1040.67 228.203 1041.68 228.82 1043.19 228.888C1046.99 229.011 1053.14 233.799 1052.59 236.157C1052.29 237.427 1051.36 238.164 1050.02 238.14C1048.78 238.136 1045.76 238.385 1043.28 238.762C1039.33 239.274 1038.49 239.174 1037.45 237.879C1036.35 236.472 1036.43 236.109 1038.02 235.045C1039.52 233.96 1039.51 233.576 1037.68 230.757L1035.72 227.713L1032.61 229.953C1029.57 232.304 1028.17 235.037 1029.5 236.305C1029.89 236.683 1030.01 239.009 1029.85 241.362C1029.48 245.39 1029.19 245.801 1026.12 247.475C1024.37 248.405 1022.52 250.173 1022.04 251.401C1021.52 252.81 1020.59 253.547 1019.36 253.453C1016.63 253.291 1014.62 255.31 1013.75 259.029C1013.24 261.207 1012.21 262.782 1010.77 263.594C1009.56 264.268 1008.36 265.71 1008.13 266.708C1007.71 268.522 1006.05 269.474 1000.44 270.938C998.103 271.538 997.692 271.251 994.981 266.885L992.041 262.275L985.836 261.397C980.015 260.514 979.519 260.59 975.293 263.524C967.49 269.066 963.638 272.853 962.938 275.847C962.45 277.933 961.028 279.514 957.404 281.919C952.548 285.089 952.457 285.068 949.628 283.258C947.139 281.624 946.211 281.502 943.15 282.317C941.305 282.842 939.252 283.032 938.729 282.814C938.205 282.596 936.856 283.045 935.716 283.831C933.659 285.264 931.061 285.326 931.379 283.965C931.464 283.602 932.332 282.753 933.291 281.925C934.831 280.658 934.826 280.274 933.121 278.153L931.278 275.809L925.576 276.867C919.198 277.958 916.565 280.213 915.207 286.019C914.374 289.172 914.129 289.402 912.149 288.461C910.83 287.961 909.113 287.942 907.812 288.594C906.085 289.434 906.218 289.274 908.275 287.842C913.796 283.871 911.714 282.14 902.695 283.475C897.553 284.186 895.148 285.058 893.817 286.66C891.686 289.224 888.988 290.123 885.813 289.381C884.634 289.105 882.72 289.518 881.467 290.373C879.634 291.667 879.458 292.008 880.468 293.01C884.068 296.435 884.068 296.435 881.36 298.194C878.183 300.321 876.899 304.996 879.03 306.93C879.991 307.729 880.898 307.941 881.276 307.551C882.033 306.771 887.173 313.427 886.876 314.697C886.791 315.06 885.799 315.211 884.62 314.935C882.715 314.489 876.659 317.474 876.32 318.925C876.235 319.288 876.854 319.911 877.719 320.305C878.904 320.965 878.883 321.056 877.319 320.786C876.3 320.643 873.836 320.545 871.894 320.665C868.144 320.744 864.707 323.576 863.88 327.114C863.285 329.654 857.428 329.337 855.173 326.704C854.163 325.703 852.316 324.601 850.956 324.283C848.778 323.773 848.331 324.051 847.821 326.228C847.503 327.589 847.575 329.328 848.061 330.112C848.826 331.343 849.975 341.562 849.509 343.558C849.403 344.012 847.37 344.11 844.9 343.628C841.319 342.982 840.155 342.231 837.874 339.306C836.399 337.43 834.498 335.741 833.772 335.572C833.046 335.402 832.533 334.325 832.627 333.103C832.828 331.428 832.277 330.917 830.058 330.589C827.294 330.134 827.294 330.134 829.65 329.058C833.42 327.261 833.65 320.139 829.837 320.491C827.964 320.723 825.321 314.842 826.535 312.926C827.483 311.329 825.88 309.998 820.677 308.111C819.54 307.654 818.216 306.77 817.639 305.965C816.901 305.027 816.154 304.948 814.406 305.879C813.126 306.44 811.992 307.61 811.843 308.245C811.673 308.971 811.044 309.206 810.563 308.807C809.971 308.477 808.658 308.361 807.645 308.603C806.227 308.941 805.362 308.547 804.437 307.183C803.721 306.154 802.488 305.292 801.789 305.415C801.112 305.448 799.926 304.788 799.28 303.871C798.195 302.374 797.88 302.492 796.321 305.476C793.878 309.784 793.842 310.349 795.016 314.738C796.362 320.028 795.868 321.731 792.705 321.756C791.168 321.779 788.603 322.519 786.967 323.38C783.086 325.247 782.269 325.056 781.657 321.947C781.141 319.243 779.626 319.175 778.99 321.897C778.629 323.439 778.021 323.584 775.726 322.76C773.864 322.133 772.902 321.334 773.114 320.427C773.193 319.68 773.149 318.234 772.817 317.2C772.34 315.558 771.907 315.361 766.53 315.443C763.458 315.489 759.638 315.457 758.214 315.411C756.677 315.434 753.329 316.66 750.573 318.216C746.047 320.793 745.754 320.82 746.2 318.915C746.476 317.736 746.153 315.843 745.549 314.745C744.41 312.66 744.319 312.639 741.393 314.921C738.713 316.973 738.217 317.048 736.14 315.701C734.816 314.818 732.291 313.749 730.386 313.303C727.12 312.539 727.051 312.427 728.008 309.972C728.529 308.563 731.065 305.903 733.633 303.921C738.77 299.956 741.818 296.746 742.327 294.568C742.497 293.843 743.29 292.497 744.158 291.648C745.405 290.409 745.484 289.662 744.291 286.991C743.563 285.194 743.207 282.623 743.547 281.172C744.162 278.541 741.108 272.373 739.076 272.472C738.58 272.547 737.446 270.847 736.67 268.847C735.568 266.198 734.58 265.105 732.995 264.926C731.885 264.762 730.497 264.151 729.99 263.458C729.391 262.744 728.463 262.622 727.071 263.254C725.995 263.767 724.122 263.999 723.034 263.744C721.945 263.49 719.843 263.476 718.425 263.814C716.217 264.255 715.624 263.925 714.213 261.777C712.733 259.517 711.868 259.123 708.384 258.883L704.335 258.605L706.931 256.916C708.876 255.553 709.493 254.549 709.591 252.085C709.583 250.074 709.161 249.018 708.142 248.875C707.304 248.775 705.623 248.19 704.347 247.509C702.478 246.498 701.305 246.606 697.739 248.356C691.165 251.506 684.794 261.976 687.087 265.669C688.338 267.684 685.773 268.424 681.056 267.32C677.881 266.578 677.182 266.701 677.003 268.286C676.86 269.305 677.262 270.451 678.015 270.915C678.906 271.602 678.347 271.949 676.048 272.368C674.245 272.712 672.651 273.392 672.524 273.936C672.418 274.389 671.223 274.588 669.953 274.291C668.048 273.846 667.861 273.419 668.654 272.074C669.468 270.638 669.26 270.302 666.81 269.729C665.268 269.368 663.69 269.573 663.248 270.235C662.806 270.897 660.619 271.247 658.357 271.101C653.854 270.717 648.394 272.789 650.269 274.184C651.913 275.334 646.175 276.958 641.449 276.713C639.277 276.588 637.224 276.778 636.755 277.146C636.377 277.536 634.601 278.173 632.729 278.405C630.926 278.749 628.773 279.776 627.904 280.625C626.972 281.747 625.554 282.085 623.921 281.703C621.199 281.066 620.757 281.728 617.792 290.316C617.468 291.292 615.885 292.74 614.361 293.532L611.605 295.087L614.004 298.328C615.207 300.14 616.249 301.819 616.186 302.091C615.868 303.452 599.136 301.356 592.097 299.135C587.373 297.648 585.88 297.49 583.838 298.448C581.257 299.662 579.949 302.8 580.743 305.952C581.123 307.189 580.539 308.87 579.128 311.219C577.031 314.46 577.037 314.844 578.498 318.822C579.371 321.226 580.35 323.178 580.803 323.284C581.529 323.453 583.126 328.898 582.765 330.44C582.383 332.073 579.266 330.674 577.918 328.254C577.266 326.953 576.943 325.06 577.267 324.083C578.219 321.244 572.31 314.6 568.896 314.471C566.703 314.436 566.404 314.079 566.994 312.782C567.409 311.827 566.868 310.457 565.517 309.279C563.386 307.346 563.205 307.303 559.714 309.548C556.356 311.633 556.18 311.975 557.35 313.11C558.151 313.775 559.043 314.462 559.406 314.547C560.243 314.648 560.591 319.704 559.808 320.191C559.493 320.309 558.323 319.174 557.281 317.495C555.453 314.675 555.202 314.521 552.979 315.436C550.777 316.26 550.686 316.239 551.712 313.896C552.212 312.578 553.578 308.783 554.656 305.4L556.622 299.449L554.173 298.876C552.087 298.388 551.948 298.164 553.333 297.149C554.628 296.112 554.553 295.616 553.057 293.831C551.192 291.577 551.192 291.577 549.984 293.878C549.17 295.314 549.033 296.717 549.637 297.815C550.776 299.899 548.51 308.363 546.522 309.907C545.605 310.554 544.096 310.871 543.007 310.616C541.828 310.34 538.773 311.539 535.73 313.506C531.007 316.516 530.496 317.066 531.42 318.43C532.088 319.256 532.363 320.947 532.066 322.217C531.79 323.396 531.628 326.133 531.817 328.187C531.955 331.281 531.743 332.188 530.266 333.182C527.138 335.512 521.467 342.988 520.83 345.709C520.49 347.161 519.57 349.05 518.814 349.83C516.475 352.058 517.035 356.207 519.575 356.801C520.845 357.098 521.827 357.807 521.86 358.484C521.963 359.273 522.891 359.395 525.211 358.885C528.16 358.14 528.614 358.246 531.658 360.776C535.252 363.817 537.62 368.007 537.026 370.547C536.262 373.812 534.821 372.614 533.753 367.772C532.615 362.817 532.615 362.817 528.01 361.645C524.018 360.711 523.026 360.862 519.759 362.968C516.156 365.282 515.98 365.624 515.4 370.559L514.868 375.697L509.746 379.187C506.906 381.106 504.343 383.473 504.109 384.471C503.812 385.741 502.581 386.505 500.506 386.785C498.725 387.038 496.357 387.345 495.274 387.475C494.17 387.695 492.298 387.927 491.146 387.944C489.791 388.01 488.762 388.726 488.508 389.815C488.019 391.901 485.981 391.616 484.794 389.329C484.329 388.455 483.207 387.523 482.3 387.311C480.032 386.78 475.994 382.774 474.843 379.921C473.527 376.552 474.791 376.465 477.505 379.587C479.46 381.862 480.144 382.214 481.807 381.646C482.932 381.335 484.357 381.381 485.11 381.844C487.486 383.548 490.771 382.594 494.516 379.261C496.701 377.284 500.086 375.492 502.203 375.031C505.515 374.37 506.138 373.751 507.089 370.912C507.801 368.686 508.867 367.404 510.551 366.746C514.102 365.472 515.272 362.109 513.305 359.066C511.247 356.001 511.75 353.44 515.849 346.553C517.589 343.612 519.276 340.083 519.594 338.723C519.891 337.453 521.483 335.146 523.087 333.607C524.781 332.09 527.166 328.438 528.432 325.481C530.506 320.704 530.627 319.776 529.697 318.027C528.28 315.495 529.663 312.853 533.98 309.94C535.702 308.716 537.769 306.425 538.535 304.786C539.301 303.147 540.493 301.321 541.095 300.792C541.9 300.215 542.282 298.582 542.123 295.579C541.974 291.717 541.627 291.158 539.359 290.627C537.998 290.309 536.653 289.516 536.487 288.998C536.342 288.391 535.247 287.752 534.068 287.476C532.889 287.2 531.447 286.002 530.773 284.792C529.704 282.819 529.432 282.756 526.915 283.698C525.454 284.217 522.247 287.294 519.232 291.182C513.779 298.134 509.686 300.908 503.685 301.61C501.024 301.944 499.478 302.826 497.662 305.272C495.489 308.017 495.32 308.742 496.217 309.814C497.115 310.885 496.966 311.52 495.156 314.349C493.985 316.085 492.931 318.134 492.671 318.839C492.501 319.565 490.849 320.9 488.989 321.9C485.646 323.511 485.625 323.601 486.328 326.732C486.784 328.465 487.805 330.235 488.536 330.788C489.519 331.497 489.6 332.377 488.616 334.538C487.765 336.54 487.725 338.348 488.576 340.844C489.551 344.038 489.557 344.422 488.118 344.851C487.195 345.113 486.242 346.326 485.966 347.505C485.69 348.684 484.939 349.848 484.31 350.084C482.87 350.512 481.977 348.198 482.571 345.658C482.825 344.57 481.636 340.656 479.839 336.887C478.132 333.139 476.211 328.671 475.734 327.028C474.122 322.059 464.909 306.222 463.576 306.197C462.92 306.139 462.049 305.362 461.584 304.487C461.07 303.41 459.955 302.862 458.418 302.886C456.295 302.963 456.135 302.83 457.333 301.388C458.223 300.448 458.499 299.269 458.145 298.325C457.84 297.584 457.838 295.957 458.093 294.868C458.751 292.056 457.737 287.801 456.376 287.482C455.741 287.334 454.002 287.406 452.584 287.743C450.082 288.211 449.907 288.552 449.56 292.49C449.413 294.752 449.678 297.301 450.234 298.197C450.79 299.092 451.101 300.218 450.995 300.671C450.889 301.125 451.62 301.679 452.618 301.912C453.616 302.145 454.348 302.699 454.22 303.243C454.114 303.697 453.645 304.066 453.101 303.938C452.648 303.832 451.663 305.994 451.027 308.716C450.008 313.07 449.678 313.662 448.046 313.28C447.048 313.047 446.083 313.491 445.913 314.217C445.722 315.033 444.778 315.387 443.327 315.047C442.057 314.75 440.638 315.088 440.196 315.75C439.664 316.391 438.971 316.899 438.517 316.792C437.066 316.453 438.141 314.312 440.428 313.125C441.617 312.542 442.73 311.463 442.879 310.828C443.282 309.104 440.674 305.528 439.346 305.888C438.807 306.144 436.322 306.137 433.766 306.018C429.584 305.9 429.173 305.613 426.773 302.373C424.256 298.818 422.665 298.255 413.714 298.074C410.278 298.036 409.562 297.008 411.058 294.296C411.739 293.02 412.704 292.576 414.246 292.936C416.332 293.425 416.487 293.174 416.558 290.416C416.605 286.121 416.488 285.807 413.585 285.128C409.684 284.215 404.905 285.011 404.523 286.644C404.136 287.893 403.954 287.85 403.136 286.032C402.574 284.753 401.02 283.624 398.885 282.933C384.471 278.701 378.959 277.316 378.789 278.041C378.704 278.404 378.027 278.437 377.365 277.995C376.724 277.462 374.616 277.065 372.829 276.934C370.364 276.836 369.399 277.28 369.102 278.55C368.423 281.453 365.308 281.681 361.517 279.072C358.57 276.948 358.313 276.409 358.639 272.563C359.387 265.275 359.541 265.024 363.249 265.125C365.985 265.287 366.92 265.793 368.331 267.941L370.02 270.536L372.461 269.098C374.028 268.125 375.284 266.027 376.326 263.209C377.58 259.484 377.514 258.129 376.385 255.186C373.002 246.741 371.057 243.606 368.698 243.055C366.43 242.524 366.318 242.594 365.668 247.417C364.992 251.947 364.683 252.449 362.187 253.3C360.705 253.91 359.32 254.926 359.15 255.651C358.959 256.468 357.728 257.232 356.421 257.501C353.808 258.038 351.251 260.788 350.551 263.782C349.193 269.588 340.896 272.335 339.15 267.526C338.679 266.267 337.604 263.911 336.903 262.408C335.507 259.785 335.235 259.721 330.989 259.876C327.239 259.956 326.15 259.701 324.319 258.125C322.738 256.702 321.558 256.426 320.14 256.764C319.105 257.097 316.299 256.823 313.871 256.159L309.538 255.05L308.71 258.588C308.244 260.584 307.232 262.452 306.267 262.896C305.303 263.34 304.531 264.595 304.367 265.705C304.209 267.198 303.761 267.476 302.443 266.977C301.487 266.562 300.478 265.56 300.124 264.617C299.862 263.694 298.904 261.652 298.134 260.037C297.176 257.995 296.809 254.656 297.166 249.86C297.717 243.004 297.599 242.69 295.331 242.159C291.612 241.289 288.175 244.121 287.008 249.11C286.477 251.378 286.331 253.64 286.811 254.04C288.211 255.42 286.748 258.809 284.456 259.612C282.387 260.276 281.976 259.989 279.773 256.316C277.458 252.713 277.383 252.217 278.96 250.385C280.382 248.804 280.636 247.716 280.242 244.083C279.863 239.976 279.969 239.523 281.83 238.523C282.928 237.919 284.435 235.975 285.222 234.245C286.839 230.605 290.591 227.656 293.04 228.228C296.215 228.971 302.988 219.648 301.517 216.529C300.678 214.802 302.879 209.481 304.33 209.82C304.965 209.969 305.442 211.611 305.311 213.398C305.152 217.762 307.815 230.919 309.359 232.907C310.027 233.733 310.217 235.786 309.814 237.51C309.028 240.866 311.364 244.379 317.607 249.187C322.386 252.889 332.785 254.651 336.751 252.422C343.878 248.539 350.674 236.256 348.188 231.751C346.862 229.24 347.085 224.604 349.174 214.855C350.674 208.031 350.784 206.334 349.479 203.733C348.73 202.026 348.311 199.728 348.608 198.458C348.884 197.279 348.525 195.951 347.863 195.509C347.222 194.976 346.841 193.739 347.096 192.651C347.329 191.653 346.596 189.472 345.441 187.862C344.287 186.253 343.457 183.667 343.497 181.858C343.68 179.031 344.975 177.994 345.687 180.266C345.853 180.783 346.73 181.945 347.6 182.722C349.203 184.054 349.245 183.872 349.586 179.551C349.985 174.573 349.471 173.496 345.661 172.605C343.393 172.075 343.164 171.83 344.238 169.689C345.425 167.479 345.425 167.479 342.797 168.491C340.93 169.107 339.709 169.012 338.747 168.213C337.946 167.548 335.325 166.073 332.934 164.844C328.631 162.786 328.247 162.791 320.749 164.578L313.07 166.321L311.924 171.22C311.309 173.851 309.889 177.059 308.823 178.34C306.959 180.583 306.372 180.638 301.927 179.598C297.392 178.537 296.784 178.682 292.914 181.317C290.633 182.888 288.651 184.816 288.439 185.724C288.248 186.54 286.054 189.376 283.588 192.147C280.386 195.608 278.665 196.832 277.821 196.348C277.159 195.906 274.567 196.352 272.12 197.406C269.673 198.461 266.927 199.158 266.02 198.945C264.75 198.648 264.217 199.289 263.644 201.739C263.177 203.734 262.293 205.058 261.413 205.14C260.603 205.333 259.671 206.454 259.331 207.906C258.567 211.171 255.427 212.733 251.527 211.821C248.352 211.078 248.352 211.078 246.613 215.647C245.726 218.214 244.541 222.051 244.032 224.228C242.653 230.125 241.116 230.148 214.18 224.23C201.71 221.505 191.555 219.512 191.513 219.694C191.449 219.966 192.102 221.267 192.915 222.7C194.144 224.806 194.119 226.14 193.047 229.907C191.953 233.766 191.992 234.827 193.327 236.479C194.455 237.795 194.723 239.102 194.09 240.58L193.218 242.673L192.724 239.878C192.449 238.187 191.087 236.242 189.373 234.98C187.819 233.851 186.579 232.604 186.686 232.151C186.77 231.788 185.873 230.717 184.661 229.764C182.626 228.235 182.151 228.22 180.073 229.743C178.799 230.689 176.57 231.22 175.007 230.95C168.369 229.876 165.233 230.195 162.371 232.204C160.671 233.337 158.853 234.156 158.127 233.986C157.401 233.816 156.128 234.762 155.222 236.177C154.121 238.024 153.135 238.559 151.502 238.177C148.871 237.562 145.716 239.598 145.121 242.138C144.803 243.499 143.46 244.333 140.644 244.918C137.332 245.579 136.549 246.065 136.418 247.853C136.35 249.368 135.019 250.97 132.429 253.043C127.803 256.458 127.479 257.435 128.958 262.564C129.912 265.849 129.86 266.889 128.492 269.057C127.012 271.294 127.108 271.699 128.705 272.647C131.667 274.297 133.133 277.031 132.539 279.571C131.854 282.09 126.471 286.285 123.538 286.556C122.274 286.643 120.41 288.886 117.28 294.085C114.81 298.1 112.382 301.934 111.716 302.735C111.03 303.627 110.999 304.576 111.736 305.514C112.912 307.033 111.255 312.482 109.219 313.823C107.518 314.956 104.293 312.384 103.409 309.211C102.289 305.409 99.1348 304.576 96.738 307.46C95.9179 308.512 93.6639 310.376 91.761 311.558C85.9887 315.374 85.132 316.992 86.6572 320.697C87.6206 323.123 88.4912 323.901 90.0275 323.877C91.4731 323.833 92.3649 324.52 92.724 325.848C93.1469 326.903 94.2954 328.129 95.4323 328.586C100.001 330.324 98.3077 340.836 93.3052 341.77C92.1105 341.969 90.6766 342.782 90.3042 343.556C89.8198 344.4 88.7005 345.095 87.9111 345.197C86.6257 345.375 86.6374 346.143 87.8693 349.875C89.5357 355.432 88.9898 358.174 85.2865 361.327C82.1852 363.95 81.6606 366.602 83.867 369.032C84.5349 369.858 85.2145 371.452 85.3227 372.625C85.4309 373.799 86.9657 376.645 88.8092 378.99C91.9461 383.168 92.0639 383.483 90.9064 387.613C89.8125 391.471 89.8725 392.442 92.1022 396.408C93.4285 398.919 94.4614 401.457 94.2917 402.183C94.1431 402.818 94.5235 404.055 95.1007 404.859C95.6779 405.664 95.9946 407.174 95.74 408.262C95.4854 409.351 95.6207 410.817 96.0377 411.489C97.4276 413.728 94.9131 416.297 91.9195 415.597C88.4723 414.79 81.8836 418.416 81.029 421.66C80.7108 423.021 79.3097 424.511 77.2679 425.469L74.0372 427.01L71.3056 422.735C69.13 419.356 67.9178 418.402 64.625 417.345C60.3344 416.054 54.9265 417.086 53.3133 419.483C52.4507 420.717 54.9797 425.04 56.8635 425.576C57.317 425.682 58.4385 426.614 59.2454 427.664C60.6507 429.428 60.6507 429.428 58.873 428.438C57.9388 427.932 55.3022 426.933 53.0768 426.221C50.8514 425.509 48.1395 424.014 47.0816 422.809C43.8445 419.469 41.8451 420.245 41.425 425.313L41.1052 429.544L36.2066 428.398C32.4873 427.528 30.5669 427.558 28.3011 428.654L25.2943 430.056L24.1282 427.678C22.8656 424.895 20.0959 424.056 17.9055 425.649C15.4488 427.562 13.7784 435.112 15.1588 438.21C15.7901 439.601 16.0973 441.969 15.7578 443.421C15.4183 444.872 15.5982 447.785 16.1292 450.014C16.8534 453.053 16.6916 455.79 15.3336 461.596C13.5937 469.035 13.6521 472.875 15.5572 473.321C17.9157 473.873 23.5726 487.73 22.8087 490.995C22.6602 491.63 23.8416 493.533 25.4496 495.249C28.6655 498.68 31.7584 505.91 31.1431 508.54C30.9309 509.447 31.29 510.775 31.8672 511.58C32.4444 512.385 32.6551 514.348 32.2731 515.98C31.5093 519.246 32.9262 521.778 36.4334 523.555C37.7304 524.146 39.2477 525.84 39.767 527.301C40.2864 528.762 41.323 530.057 41.958 530.206C42.6837 530.375 43.1219 530.956 42.9734 531.591C42.8461 532.135 43.2053 533.463 43.8095 534.561C44.6705 536.198 44.5915 536.945 43.0902 539.273C41.477 541.67 41.3768 542.508 42.4638 545.632C43.0585 547.589 43.414 550.16 43.1381 551.339C42.8835 552.428 43.152 553.735 43.7233 554.155C44.3854 554.597 44.8491 558.341 44.8921 562.657C44.8678 568.488 45.3294 570.605 46.5628 571.467C48.8694 573.059 57.9775 574.616 60.6331 573.897C63.0861 573.227 64.3036 570.068 66.7086 557.331C67.7096 551.824 68.4756 550.186 70.8994 547.595C72.476 545.763 74.128 544.428 74.5815 544.534C74.9444 544.619 75.4134 544.25 75.5619 543.615C75.6892 543.071 76.6 542.04 77.5167 541.393C78.5453 540.677 79.9983 538.147 80.9765 535.601C82.3001 531.987 82.325 530.654 81.3945 528.905C79.5122 525.499 81.2124 524.366 87.3694 525.041C92.0324 525.557 93.5205 525.331 97.1931 523.129L101.447 520.488L103.877 522.778C106.975 525.895 120.086 529.153 122.773 527.485C125.011 526.095 125.032 526.004 123.492 522.774C121.694 519.005 122.273 516.939 124.452 519.076C125.761 520.434 126.236 520.45 127.776 519.183C129.092 518.056 129.783 515.921 130.836 509.374C132.074 501.627 131.971 500.838 129.86 497.186C127.769 493.444 127.742 493.151 129.476 489.825C131.169 486.681 131.226 486.025 129.964 483.242L128.493 480.123L131.409 478.7C132.955 477.818 135.072 477.356 136.07 477.59C138.791 478.226 141.804 477.209 142.207 475.485C142.737 473.217 148.292 469.924 150.65 470.476C151.739 470.73 153.696 470.136 154.991 469.099C156.286 468.062 157.971 467.404 158.696 467.574C159.876 467.85 159.866 468.708 158.606 472.049C156.895 476.911 157.928 479.449 162.336 481.055C164.54 481.857 165.303 481.461 167.748 478.78C170.417 475.96 171.046 475.725 174.647 476.28C176.867 476.608 179.598 476.385 180.696 475.781C182.333 474.92 183.079 474.999 185.477 476.612C188.648 478.598 191.657 478.823 194.728 477.15C197.462 475.684 199.46 477.778 199.071 481.897C198.845 484.906 198.984 485.13 202.522 485.957C206.242 486.827 208.874 489.07 208.408 491.065C208.28 491.61 209.435 493.219 211.106 494.663C213.558 496.863 214.008 498.212 214.533 504.554C215.053 510.512 214.874 512.096 213.585 513.517C212.765 514.569 212.132 516.047 212.234 516.837C212.515 518.912 215.711 519.564 217.448 517.865C218.604 516.604 218.785 516.647 219.812 518.801C220.465 520.101 221.262 522.01 221.594 523.045C222.237 525.204 228.182 526.786 231.851 525.826C233.584 525.371 234.449 525.764 236.468 527.767C237.867 529.147 239.209 531.183 239.61 532.33C240.248 534.105 240.68 534.302 243.683 534.143C247.769 533.855 249.649 535.634 248.864 538.991C248.588 540.17 249.339 543.503 250.559 546.468C252.39 550.914 253.218 551.873 255.667 552.446C257.3 552.828 259.13 552.778 259.689 552.43C260.473 551.944 261.232 552.791 262.168 554.924C263.43 557.706 264.162 558.26 268.153 559.194C272.326 560.17 273.228 559.998 276.649 557.641C281.078 554.659 281.254 554.317 279.71 552.329C279.133 551.524 278.731 550.378 278.879 549.743C279.028 549.108 278.107 546.501 276.85 544.102C274.331 538.92 274.979 536.967 278.859 537.97C282.466 538.909 284.838 537.359 285.926 533.117C286.871 529.893 287.207 529.685 289.811 530.007C291.667 530.25 292.991 531.134 293.874 532.679C295.43 535.435 297.586 536.035 300.224 534.165C302.281 532.732 302.302 532.642 300.35 529.123C298.377 525.696 298.402 524.362 300.523 518.161C301.107 516.48 303.995 517.633 306.981 520.819C309.187 523.249 311.077 524.17 317.977 526.166C322.631 527.542 328.106 529.492 330.226 530.658C335.169 533.249 337.8 533.864 340.77 533.028C342.594 532.594 343.704 532.758 345.236 533.977C346.358 534.909 349.699 536.169 352.511 536.827C355.323 537.485 358.141 538.527 358.691 539.038C359.93 540.285 369.496 540.704 371.399 539.523C373.19 538.411 375.346 539.011 377.141 541.153C377.878 542.091 379.635 543.171 380.905 543.468C382.265 543.787 383.408 544.628 383.51 545.417C383.634 546.116 385.076 547.314 386.715 548.08C388.716 548.931 389.795 550.045 389.77 551.379C389.854 553.886 387.589 559.479 386.07 560.655C385.468 561.184 385.016 562.705 385.013 563.948C385.032 566.727 388.999 568.994 392.15 568.201C394.715 567.461 395.256 568.831 393.718 571.725C392.798 573.614 392.964 574.131 394.859 575.436C396.434 576.474 397.523 576.729 398.488 576.285C399.362 575.819 400.611 576.207 402.416 577.49L405.043 579.349L402.632 579.837C400.312 580.347 397.591 584.208 398.298 586.095C398.464 586.612 400.145 587.197 402.002 587.44C403.88 587.592 405.993 588.373 406.683 589.109C407.713 590.02 408.914 590.205 411.639 589.598C413.644 589.206 415.81 588.947 416.445 589.096C417.08 589.244 418.541 588.725 419.681 587.939C421.046 587.015 422.918 586.783 425.095 587.292C427.091 587.759 429.619 587.585 431.144 586.793C433.703 585.67 434.973 585.967 434.548 587.781C434.442 588.235 433.275 588.727 431.899 588.883C428.448 589.32 427.514 593.312 430.413 595.233C431.577 595.984 432.988 598.132 433.423 599.956C433.879 601.689 435.238 604.877 436.356 607.052C438.73 611.626 439.366 616.272 438.262 620.989C437.817 622.894 437.985 625.038 438.562 625.843C439.139 626.648 439.414 628.338 439.095 629.699C438.798 630.969 439.042 633.609 439.658 635.476C440.274 637.342 440.644 639.438 440.475 640.164C439.966 642.341 440.974 650.709 441.974 652.57C443.322 654.99 447.435 654.995 449.229 652.64C451.269 650.056 454.262 650.756 453.583 653.659C452.926 656.471 456.688 661.656 459.377 661.615C460.438 661.577 461.735 662.167 462.334 662.881C463.488 664.491 468.689 664.751 470.544 663.366C471.258 662.768 472.565 662.5 473.36 662.781C475.788 663.445 481.618 670.836 481.402 672.986C481.329 674.117 482.736 677.508 484.591 680.621C486.446 683.734 487.833 687.216 487.76 688.347C487.58 689.931 488.569 691.024 492.172 693.206C496.368 695.718 497.094 695.888 500.657 695.382C502.753 695.011 504.513 694.849 504.652 695.073C504.7 695.275 505.274 697.323 505.965 699.685C507.589 705.423 511.368 707.264 516.62 704.856C519.067 703.802 521.232 703.543 523.772 704.137C526.04 704.668 528.073 704.569 528.92 703.811C529.815 703.255 531.905 702.5 533.799 702.177C535.601 701.833 537.238 700.972 537.408 700.247C537.599 699.43 538.473 698.965 539.471 699.198C540.378 699.411 541.908 699.003 542.734 698.335C545.527 696.214 553.536 693.877 556.076 694.471C557.709 694.853 558.744 694.521 559.403 693.336C559.951 692.22 561.098 691.819 562.549 692.158C563.729 692.434 565.419 692.16 566.224 691.583C568.191 690.129 568.804 690.368 571.433 693.854C573.395 696.513 573.987 696.843 576.195 696.403C580.094 695.688 581.028 696.194 584.908 701.694C589.205 707.865 592.35 709.558 605.627 713.333L615.841 716.296L621.401 713.387C625.772 711.061 626.977 710.003 627.507 707.735C627.868 706.193 627.657 704.23 627.08 703.425C626.503 702.62 626.25 700.839 626.568 699.478C626.886 698.118 626.633 696.336 626.056 695.531C624.741 693.789 626.337 690.239 629.332 688.069C630.563 687.305 631.586 686.205 631.692 685.751C631.82 685.207 633.36 683.94 635.129 682.919C638.242 681.064 638.514 681.128 640.101 682.934C641.089 684.026 643.572 685.277 645.658 685.765C648.107 686.338 649.794 687.306 650.516 688.719C651.447 690.467 652.242 690.749 655.405 690.724C662.996 690.586 667.28 694.362 669.772 703.748C670.823 707.438 675.998 711.901 680.513 713.053C685.683 714.262 693.407 713.964 696.051 712.478C699.548 710.617 710.816 711.53 714.991 714.133C716.566 715.171 720.27 716.516 723.082 717.174C727.778 718.368 728.44 718.81 729.591 721.662C731.672 726.263 734.677 727.731 744.98 729.089C762.096 731.179 761.893 731.227 766.685 728.329C769.127 726.891 772.72 725.435 774.613 725.113C779.483 724.338 787.282 720.039 787.77 717.953C788.258 715.866 795.5 710.671 799.26 709.733C801.601 709.132 802.306 709.393 805.232 711.608L808.479 714.09L813.699 712.632C818.514 711.271 819.443 711.392 824.465 713.236C833.212 716.335 839.724 715.083 843.819 709.439C844.948 707.886 846.872 706.613 848.36 706.387C851.72 705.93 852.675 701.847 850.603 696.388C849.238 692.815 849.269 691.866 850.573 689.97C851.457 688.646 852.983 684.985 854.153 681.622C855.21 678.329 856.715 674.759 857.514 673.797C859.596 671.031 859.209 664.913 856.595 660.953C854.767 658.134 854.196 657.713 852.42 658.35C849.925 659.202 849.967 659.02 853.336 653.206C855.652 649.442 856.877 648.294 860.316 647.089C862.7 646.307 866.853 644.504 869.679 643.06C874.972 640.471 879.261 640.135 888.411 641.509C890.994 641.922 895.705 642.641 899.056 643.042C904.605 643.862 905.379 644.234 908.386 647.33C910.154 649.179 911.475 651.305 911.326 651.94C911.156 652.666 912.102 653.94 913.315 654.893C916.903 657.55 921.659 664.212 921.673 666.607C921.697 668.144 922.573 669.305 924.302 670.093C926.875 671.364 932.925 679.859 934.601 684.557C935.785 688.087 940.087 690.146 944.978 689.28C946.871 688.958 948.828 688.363 949.318 687.904C950.32 686.894 960.48 689.271 964.628 691.58C966.907 692.879 968.177 693.176 969.073 692.62C969.744 692.203 970.939 692.004 971.755 692.195C973.842 692.683 977.002 698.397 976.451 700.756C976.132 702.117 976.945 703.551 979.188 705.415C983.263 708.856 986.801 709.683 987.987 707.473C988.493 706.539 989.319 705.871 989.954 706.019C990.498 706.147 993.468 705.311 996.411 704.181C1001.24 702.345 1001.93 701.837 1002.01 699.463C1002.07 697.564 1003.29 695.648 1006.58 692.208C1015.23 683.037 1015.82 682.983 1019.58 689.795C1021.79 693.852 1022.05 694.775 1020.85 695.832C1018.08 698.247 1017.76 699.224 1018.97 701.42C1020.45 704.064 1021.34 710.107 1020.78 713.324C1020.48 714.594 1020.64 716.355 1021.02 717.208C1021.92 719.047 1021.82 723.997 1020.92 729.05C1020.55 731.067 1020.52 733.644 1020.81 734.86C1021.74 737.851 1018.73 740.496 1015.28 739.69C1011.92 738.904 1007.19 741.146 1006.57 743.777C1006.32 744.865 1004.87 746.537 1003.33 747.419C999.453 749.67 998.653 753.501 1001.56 755.807C1002.77 756.761 1004.32 759.132 1004.94 760.999C1005.53 762.956 1007.29 766.906 1008.89 769.865C1011.9 775.83 1011.85 778.497 1008.33 783.319C1005.21 787.66 1004.99 789.81 1007.48 791.445C1011.27 794.054 1013.11 791.901 1016.74 780.886C1018.1 776.707 1018.56 775.955 1019.37 777.005C1020.62 778.635 1022.44 778.201 1022.93 776.114C1023.18 775.026 1023.48 774.999 1024.1 776.006C1025.28 777.909 1027.23 778.173 1032.07 777.105C1034.3 776.574 1037.03 776.352 1037.94 776.564C1039.12 776.84 1040.9 775.344 1044.08 771.589C1046.52 768.524 1049.5 765.202 1050.7 764.144C1052.64 762.397 1053.37 760.081 1057.74 741.394C1060.78 728.422 1063.37 718.982 1064.71 716.521C1067.06 711.807 1068.24 701.846 1067.62 690.986C1067.12 682.067 1068.12 672.063 1070.68 661.946C1072.77 653.824 1072.75 653.531 1070.77 649.719C1069.63 647.635 1068.4 644.286 1068.1 642.302C1067.4 637.929 1064.82 631.776 1059.89 622.586C1055.7 614.718 1055.04 611.406 1055.79 603.734C1056.39 597.081 1056.48 597.102 1063.56 602.395C1067.08 604.941 1068.81 606.971 1069.29 608.997C1069.77 610.64 1072.29 615.821 1075.02 620.48C1080.34 629.665 1082.65 634.895 1083.4 639.087C1083.71 640.596 1085.58 643.234 1087.9 645.21C1090.74 647.788 1092.34 650.363 1093.82 654.634C1094.89 657.849 1096.71 661.912 1097.92 663.724C1099.1 665.627 1099.94 667.738 1099.75 668.554C1099.58 669.28 1101.31 672.937 1103.6 676.631C1107.08 682.228 1108.09 683.229 1109.64 682.731C1112.36 681.741 1112.67 679.996 1111.02 675.592C1110.2 673.39 1109.77 670.707 1110.19 669.752C1111.1 667.478 1115.78 667.136 1118.95 669.121C1123.03 671.703 1124.36 668.09 1120.92 663.555C1118.45 660.202 1116.36 659.33 1114.14 660.63C1113 661.415 1112.5 661.107 1111.81 659.128C1111.25 657.849 1110.1 656.623 1109.2 656.411C1108.29 656.199 1107.4 655.512 1107.23 654.995C1107.09 654.387 1105.72 653.684 1104.36 653.366C1102.82 653.005 1100.73 651.274 1098.86 648.636C1096.46 645.396 1095.94 643.935 1096.47 641.667C1096.86 640.034 1096.52 636.989 1095.67 634.878C1094 630.564 1094.79 624.338 1096.96 624.847C1098.87 625.292 1103.8 622.619 1104.18 620.986C1104.39 620.079 1103.26 618.378 1101.48 617.005C1096.97 613.367 1091.44 607.96 1090.14 605.742C1089.45 604.623 1087.63 602.572 1085.96 601.128C1084.38 599.706 1081.9 597.213 1080.47 595.539C1079.05 593.866 1076.8 592.002 1075.6 591.433C1072.64 590.167 1068.7 583.696 1067.14 577.686C1066.3 574.332 1065.3 572.856 1063.25 571.802C1061.73 570.967 1060.14 569.16 1059.6 567.79C1059.08 566.329 1057.86 564.992 1056.96 564.78C1056.05 564.567 1054.71 562.915 1053.87 561.188C1052.58 558.112 1046.89 553.814 1045.44 554.718C1045.01 554.905 1044.7 556.65 1044.54 558.528C1044.5 561.195 1044.8 561.936 1046.52 562.339C1047.88 562.658 1049.24 564.219 1050.32 566.575L1052.02 570.323L1049.85 569.814C1047.94 569.368 1047.45 569.828 1046.19 572.785C1045.07 575.491 1044.18 576.431 1042.22 576.642C1038.86 577.099 1034.96 576.187 1033.99 574.62C1033.5 573.836 1030.93 572.949 1027.33 572.394C1022.91 571.647 1020.48 571.843 1017.04 573.047L1012.61 574.787L1014.17 580.413C1016.01 587.255 1015.95 587.527 1013.32 587.295C1012.1 587.201 1010.6 587.902 1009.78 588.954C1008.12 591.148 1006.89 591.054 1007.45 588.695C1007.68 587.698 1006.88 585.405 1005.72 583.411C1003.96 580.704 1003.23 580.15 1002.04 580.733C1000.31 581.573 999.146 585.319 1000.32 586.454C1000.8 586.853 1000.93 587.936 1000.73 588.752C1000.2 590.636 997.407 585.391 996.36 580.458C995.905 578.724 995.316 577.152 994.953 577.067C994.59 576.982 992.842 577.912 991.051 579.024C989.26 580.136 987.239 581.003 986.423 580.812C985.697 580.642 984.278 580.98 983.18 581.585C982.082 582.189 980.818 582.276 980.449 581.807C979.349 580.784 982.554 571.583 984.69 569.404C987.583 566.445 994.134 547.024 992.968 544.646C991.99 542.695 997.81 522.72 1000.21 519.836C1001.69 517.983 1001.71 517.508 1000.39 515.382C998.442 512.248 999.709 506.421 1002.68 504.342C1004.83 502.93 1004.89 502.658 1004.16 499.234C1002.78 492.883 1004.88 488.399 1012.05 482.708C1019.68 476.649 1025.28 473.174 1026.91 473.556C1027.82 473.768 1029.97 473.6 1031.68 473.235C1034.54 472.468 1034.58 472.287 1033.78 469.994C1032.83 467.478 1033.54 466.495 1035.9 467.047C1037.99 467.535 1044.9 462.933 1044.4 461.381C1044.12 460.549 1044.36 460.319 1045.11 460.783C1045.78 461.224 1047.38 460.929 1048.68 460.276L1051.1 458.929L1049.79 455.943C1048.19 452.126 1049.76 449.526 1054.15 448.736C1056.05 448.413 1057.62 447.824 1057.72 447.371C1057.89 446.645 1066.64 443.62 1067.73 443.874C1067.91 443.917 1067.84 445.048 1067.54 446.318C1066.86 449.221 1068.3 451.662 1071.29 452.362C1073.2 452.808 1073.89 452.3 1075.56 449.247C1076.68 447.309 1078.5 445.247 1079.69 444.664C1081.53 443.755 1081.93 442.89 1082.28 439.337C1082.67 435.218 1082.8 435.058 1085.22 435.337C1087.08 435.58 1087.95 435.115 1088.54 433.434C1089.02 432.206 1089.99 430.903 1090.73 430.598C1091.5 430.203 1092.56 428.921 1093.17 427.533C1094.14 425.462 1093.93 425.126 1091.84 424.638C1090.57 424.341 1088.29 424.67 1086.79 425.37C1083.92 426.612 1082 425.398 1082.64 422.677C1082.83 421.86 1082.35 420.218 1081.61 418.896C1080.65 417.238 1080.57 414.731 1081.26 409.726C1081.77 405.922 1081.87 401.83 1081.47 400.684C1080.97 399.516 1080.94 397.212 1081.36 395.397C1081.87 393.22 1081.65 391.732 1080.57 390.619C1078.69 388.84 1079.64 383.13 1082.07 381.308C1082.99 380.661 1084.67 378.376 1085.75 376.235C1087.57 372.931 1088.18 372.402 1089.54 373.104C1090.82 373.785 1091.67 373.411 1093 371.425C1094.63 368.937 1096.34 368.188 1095.89 370.093C1095.62 371.272 1100.94 380.84 1102.03 381.095C1102.48 381.201 1103.1 380.197 1103.53 378.767C1104.06 376.499 1104.22 376.632 1104.88 380.328L1105.67 384.339L1107.72 380.895C1108.84 378.958 1109.94 375.483 1110.17 372.858C1111.5 361.019 1111.63 358.848 1111.07 357.953C1110.12 356.295 1110.63 355.361 1112.17 355.721C1113.08 355.934 1113.74 355.132 1114.17 353.318C1114.68 351.141 1114.44 350.512 1112.81 350.13C1111.63 349.854 1109.38 347.606 1107.85 345.143C1105.22 341.274 1105.02 340.463 1106.18 337.96C1107.6 334.752 1110.1 333.9 1109.4 336.894C1108.85 339.253 1114.99 349.396 1117.9 350.843C1119.09 351.503 1120.73 353.896 1121.6 356.301C1122.88 359.852 1122.94 361.207 1121.78 363.71C1121.02 365.349 1119.95 367.874 1119.36 369.171C1118.72 370.649 1118.64 372.255 1119.31 373.465C1120.38 375.438 1122.66 394.724 1122.09 397.174C1121.9 397.99 1122.46 400.512 1123.37 402.736C1124.17 405.029 1124.94 410.757 1125.06 415.568C1125.1 423.138 1124.9 424.429 1123.51 425.445C1122.48 426.161 1121.85 427.639 1121.81 429.448C1121.7 431.144 1121.2 432.463 1120.57 432.698C1119.94 432.934 1119.19 434.098 1118.9 435.368C1118.53 436.91 1118.93 437.672 1120.11 437.948C1122.01 438.393 1123.89 442.659 1123.29 445.199C1123.06 446.197 1123.4 447.615 1123.97 448.42C1124.55 449.225 1124.85 450.825 1124.57 452.004C1124.25 453.365 1125.62 456.937 1128.45 462.001C1130.89 466.303 1132.78 470.093 1132.67 470.547C1132.31 472.089 1140.47 479.354 1147.51 483.586C1151.53 486.056 1155.35 488.958 1155.86 490.035C1157.37 492.972 1160.49 495.998 1167.85 501.355C1171.51 504.124 1175.17 507.278 1176.03 508.53C1176.81 509.671 1178.17 510.848 1179.07 511.06C1179.89 511.251 1181.74 512.737 1183.08 514.389C1184.5 516.062 1186.72 517.633 1188.35 518.015C1190.26 518.46 1191.54 519.525 1192.43 521.455L1193.76 524.35L1194.91 519.452C1195.54 516.73 1195.99 511.955 1195.96 508.792C1195.94 505.628 1196.22 501.963 1196.43 500.672C1196.85 498.858 1195.73 496.299 1192.19 490.974C1186.66 482.697 1186.37 481.481 1188.22 476.843C1189.31 474.227 1190.07 473.448 1191.66 473.627C1194.66 473.852 1195.33 469.797 1192.52 468.281C1186.07 464.763 1183.01 459.454 1183.31 452.444C1183.53 449.051 1183.93 448.57 1188.12 446.201C1192.09 443.972 1192.51 443.4 1192.27 441.144C1191.78 437.491 1188.57 434.444 1185.25 434.336C1183.44 434.296 1182.24 433.726 1181.68 432.831C1181.3 431.978 1180.13 430.843 1179.02 430.295C1176.97 429.242 1174.41 422.998 1174.98 420.549C1175.15 419.823 1175.98 419.155 1176.88 418.984C1177.67 418.881 1179.06 417.866 1179.81 416.702C1180.96 415.057 1180.88 414.177 1179.76 412.002C1178.25 409.449 1173.91 407.572 1172.53 408.971C1170.52 410.99 1163.55 404 1164.31 400.735C1164.65 399.283 1160.05 391.127 1159.32 391.817C1156.4 394.482 1153.61 398.231 1153.71 399.404C1154.04 401.682 1152.33 400.804 1148.68 396.792C1144.94 392.758 1144.49 391.409 1145.46 387.236C1145.99 384.969 1145.24 382.878 1142.01 377.436C1138.23 371.098 1138.04 370.288 1139.24 367.603C1139.94 365.852 1141.9 364.015 1144.07 362.897C1148.31 360.731 1148.8 359.887 1146.45 358.477C1145.54 357.881 1144.95 356.692 1145.19 355.694C1145.42 354.696 1145.37 352.866 1145.08 351.65C1144.53 349.512 1144.53 349.512 1145.84 351.255C1146.58 352.192 1148.23 353.727 1149.53 354.701C1151.57 356.23 1151.77 356.181 1152.3 353.913C1152.6 352.643 1152.35 350.003 1151.65 348.116C1150.7 345.215 1150.75 344.175 1152.22 341.553C1153.39 339.434 1153.75 337.892 1153.29 337.018C1152.82 336.143 1153.59 334.889 1155.69 332.891C1157.38 331.374 1159.18 329.403 1159.69 328.469C1160.9 326.552 1164.58 326.36 1166.73 328.203C1168.01 329.268 1168.78 329.257 1170.86 327.734L1173.55 326.066L1171.44 322.414C1169.23 318.742 1168.52 313.216 1169.62 308.499C1169.94 307.138 1169.49 304.546 1168.56 302.798C1167.72 301.071 1167.09 298.052 1167.26 296.083C1167.32 294.184 1167.3 289.778 1167.05 286.369C1166.88 282.982 1167.17 278.074 1167.76 275.534C1168.27 272.973 1168.5 269.105 1168.24 266.94C1167.89 264.753 1167.76 262.043 1167.95 260.843C1168.02 259.712 1167.56 257.978 1166.73 257.019C1165.4 255.367 1165.4 255.367 1167.42 255.743C1168.87 256.083 1169.97 255.479 1171.14 253.743C1172.08 252.147 1173.54 251.244 1174.99 251.199C1176.81 251.149 1177.44 250.529 1177.99 248.17C1178.37 246.538 1178.18 244.484 1177.51 243.658C1176.85 242.832 1176.21 241.057 1176.01 239.862C1175.78 237.99 1175.39 237.612 1173.86 238.019C1172.82 238.351 1171.17 238.06 1170.14 237.533C1169.03 236.985 1167.11 237.014 1165.54 237.603C1164.07 238.123 1162.7 238.279 1162.49 237.943C1162.19 237.586 1161.31 237.667 1160.44 238.133C1159.16 238.695 1158.79 238.61 1158.73 237.639C1158.63 236.85 1156.63 235.999 1153.09 235.171C1148.38 234.068 1147.31 234.106 1145.3 235.741C1144.01 236.778 1142.23 237.415 1141.15 237.161C1139.42 236.757 1139.42 236.757 1142.07 234.028C1144.45 231.619 1144.73 230.824 1144.82 226.348C1144.99 222.368 1144.28 220.097 1141.47 215.326C1138.08 209.751 1137.79 209.393 1134.3 209.153C1131 208.954 1130.68 208.688 1130.37 206.32C1130.15 204.832 1130.15 203.589 1130.26 203.519C1131.34 203.006 1138.48 204.389 1139.51 205.3C1140.36 206.168 1141.37 205.927 1143.25 204.452C1145.37 202.747 1145.92 201.632 1146.27 198.078C1146.77 192.647 1147.98 191.973 1153.84 193.534C1157.24 194.522 1158.51 194.435 1159.64 193.265C1164.18 188.586 1166.33 187.175 1169.35 186.926C1172.08 186.703 1173 186.057 1174.76 183.024C1175.95 180.814 1176.68 178.498 1176.5 177.213C1176.3 176.018 1176.57 174.07 1177.14 172.864L1178.03 170.681L1175.01 172.557L1171.99 174.434L1169.08 169.258C1166.99 165.516 1166.07 164.535 1165.71 165.694C1165.41 166.964 1165.01 167.06 1163.97 166.149C1163.13 165.281 1162.92 163.702 1163.45 161.434C1164.06 158.419 1163.89 157.902 1162.4 157.744C1160.89 157.677 1160.75 157.453 1161.89 156.667C1162.96 155.77 1162.93 155.092 1161.51 152.944C1160.52 151.468 1159.97 149.329 1160.24 148.15C1160.79 145.792 1160.52 145.728 1156.62 146.443ZM1138.61 236.566C1138.5 237.02 1137.58 237.283 1136.49 237.028C1135.49 236.795 1135.05 236.214 1135.43 235.824C1135.83 235.343 1136.82 235.193 1137.55 235.362C1138.27 235.532 1138.73 236.022 1138.61 236.566ZM1135.73 240.678C1135.62 241.131 1135.06 241.479 1134.52 241.352C1134.07 241.246 1133.99 240.749 1134.37 240.36C1134.77 239.879 1135.31 239.622 1135.58 239.686C1135.76 239.728 1135.86 240.134 1135.73 240.678ZM714.606 268.279C712.504 268.266 711.948 267.37 713.083 266.201C713.706 265.581 714.229 265.799 715.036 266.849C716.142 268.256 716.03 268.325 714.606 268.279ZM726.023 317.64C725.166 319.258 725.332 319.775 726.784 320.115C729.596 320.772 728.6 322.166 724.126 323.703C721.834 324.506 719.595 325.896 718.999 326.809C718.514 327.653 716.92 328.332 715.517 328.195C714.093 328.149 712.06 328.248 710.956 328.468C709.175 328.721 709.196 328.63 711.653 326.717C713.081 325.521 714.37 324.1 714.54 323.374C714.688 322.739 716.128 322.311 717.664 322.287C719.676 322.279 720.641 321.835 720.959 320.474C721.51 318.116 725.426 314.056 726.366 314.946C726.756 315.324 726.571 316.525 726.023 317.64ZM550.419 323.927C550.975 324.822 551.264 326.038 551.137 326.582C551.01 327.127 551.405 327.889 551.977 328.31C552.639 328.751 552.463 329.093 551.268 329.292C550.367 329.464 548.84 328.628 547.671 327.494C546.063 325.778 545.843 324.674 546.564 321.59C547.689 316.782 549.074 315.767 549.356 319.468C549.492 320.935 549.974 322.962 550.419 323.927ZM1048.77 579.322C1049.17 580.084 1050.33 582.462 1051.45 584.637C1053.73 589.189 1053.52 591.723 1050.89 591.108C1049.8 590.853 1048.79 589.468 1048.35 587.644C1047.85 585.708 1046.9 584.435 1045.73 584.159C1044.09 583.777 1043.95 583.553 1045.34 582.537C1046.5 581.661 1046.67 580.935 1046.17 579.384C1045.58 577.811 1045.76 577.469 1046.85 577.724C1047.57 577.893 1048.44 578.671 1048.77 579.322Z" fill="#E1E5E9"/>
<path id="Vector_2" d="M551.025 216.622C548.481 217.271 545.559 218.31 544.573 218.844C542.174 220.101 533.182 217.232 531.402 214.615C529.809 212.425 527.813 211.958 525.847 213.412C524.685 214.288 523.261 214.242 520.533 213.221C516.285 211.749 511.068 211.964 507.774 213.777C506.228 214.659 504.894 214.634 503.346 213.889C501.82 213.054 501.121 213.178 500.888 214.175C500.506 215.808 499.396 215.644 498.353 213.965C497.172 212.063 495.381 213.175 494.926 215.938C494.413 219.358 493.097 220.486 490.285 219.828C488.924 219.51 488.135 219.612 488.343 219.948C489.108 221.179 480.566 224.156 475.935 224.317C470.921 224.484 469.227 226.001 471.252 228.388C471.989 229.326 472.134 229.934 471.59 229.807C470.955 229.658 470.374 230.097 470.204 230.822C469.992 231.729 468.952 231.677 465.952 230.593C462.136 229.318 461.934 229.366 461.424 231.543C461.021 233.267 460.531 233.726 459.709 233.151C459.047 232.709 457.308 232.781 455.735 233.37C453.218 234.312 453.064 234.563 454.122 235.767C455.158 237.062 455.095 237.334 453.234 238.334C452.136 238.939 449.112 239.188 446.487 238.957C441.461 238.355 439.488 239.425 437.248 243.685C436.392 245.302 436.66 246.609 438.739 249.583C441.839 254.326 442.097 259.362 439.159 260.875C437.971 261.458 436.927 262.649 436.714 263.556C436.29 265.371 441.022 273.366 442.745 273.769C443.38 273.918 443.749 274.387 443.643 274.841C443.537 275.294 444.316 276.051 445.453 276.508C446.681 276.986 447.306 277.994 447.191 279.306C446.996 281.366 447.087 281.387 450.511 280.657C454.249 279.809 454.951 278.442 453.874 274.459C453.306 272.795 453.555 271.323 454.439 269.999C455.189 268.835 455.529 267.383 455.288 266.37C454.687 264.029 457.419 256.44 459.258 255.53C460.111 255.156 460.889 254.285 461.059 253.559C461.207 252.924 462.193 252.39 463.185 252.239C464.338 252.221 465.451 251.142 465.972 249.733C466.62 247.78 467.383 247.384 469.602 247.712C471.55 247.976 473.144 247.297 475.195 245.48C476.687 244.011 478.478 242.899 479.203 243.069C479.839 243.218 481.076 242.837 481.88 242.26C482.93 241.453 483.608 241.42 484.164 242.316C485.276 244.107 486.268 243.956 486.734 241.96C486.968 240.962 487.794 240.295 488.519 240.464C489.245 240.634 489.965 240.42 490.092 239.875C490.198 239.422 492.192 238.262 494.485 237.458C496.799 236.565 498.814 235.314 498.983 234.588C499.174 233.771 499.804 233.536 500.535 234.09C501.197 234.532 501.875 234.499 501.981 234.045C502.108 233.501 503.644 233.477 505.459 233.902C509.631 234.878 512.602 234.042 512.3 232.058C511.999 230.074 514.201 229.249 517.83 230.098C519.372 230.459 521.335 230.248 522.139 229.671C523.189 228.864 525.451 229.01 530.259 230.135C533.888 230.984 537.148 231.364 537.638 230.904C538.128 230.445 539.014 230.748 540.247 231.61C541.71 232.718 542.82 232.882 545.252 232.302C546.985 231.847 549.402 231.742 550.49 231.997C551.76 232.294 554.346 231.464 556.83 229.844C559.985 227.807 561.163 226.456 561.714 224.098C563.13 217.636 558.768 214.606 551.025 216.622Z" fill="#E1E5E9"/>
<path id="Vector_3" d="M737.284 304.679C734.576 306.437 733.444 309.234 735.167 309.637C735.711 309.765 736.742 310.675 737.389 311.592C738.543 313.202 738.927 313.196 742.046 311.725C744.445 310.468 745.622 309.117 746.047 307.302C746.619 304.853 746.39 304.608 743.215 303.865C740.765 303.293 738.984 303.546 737.284 304.679Z" fill="#E1E5E9"/>
<g id="Location">
<circle id="Eclipse 2" cx="196.5" cy="253.5" r="9.5" fill="#008AA4" fill-opacity="0.25"/>
<circle id="Eclipse" cx="196.5" cy="253.5" r="8.5" fill="#008AA4"/>
</g>
</g>
</svg>
