<svg width="434" height="73" viewBox="0 0 434 73" fill="none" xmlns="http://www.w3.org/2000/svg">
<path d="M196.716 54.486C194.88 54.486 193.242 54.126 191.802 53.406C190.362 52.686 189.21 51.714 188.346 50.49C187.518 49.266 187.104 47.88 187.104 46.332C187.104 44.388 187.59 42.858 188.562 41.742C189.57 40.626 191.208 39.816 193.476 39.312C195.78 38.808 198.876 38.556 202.764 38.556H204.6V37.152C204.6 35.1 204.168 33.624 203.304 32.724C202.44 31.824 201.018 31.374 199.038 31.374C197.526 31.374 196.014 31.608 194.502 32.076C192.99 32.508 191.442 33.21 189.858 34.182L188.184 30.348C189.552 29.376 191.262 28.602 193.314 28.026C195.366 27.45 197.328 27.162 199.2 27.162C202.8 27.162 205.464 28.026 207.192 29.754C208.92 31.446 209.784 34.11 209.784 37.746V54H204.654V49.626C204.006 51.138 202.998 52.326 201.63 53.19C200.262 54.054 198.624 54.486 196.716 54.486ZM197.796 50.598C199.74 50.598 201.36 49.914 202.656 48.546C203.952 47.178 204.6 45.45 204.6 43.362V41.904H202.818C200.19 41.904 198.12 42.03 196.608 42.282C195.132 42.534 194.07 42.966 193.422 43.578C192.81 44.154 192.504 44.964 192.504 46.008C192.504 47.376 192.972 48.492 193.908 49.356C194.844 50.184 196.14 50.598 197.796 50.598Z" fill="#001B20"/>
<path d="M217.874 54V27.648H223.328V38.34H227.756L235.91 27.648H241.85L232.94 39.474C233.804 39.87 234.596 40.482 235.316 41.31C236.072 42.102 236.846 43.2 237.638 44.604L243.092 54H237.26L232.67 46.116C231.842 44.712 231.032 43.776 230.24 43.308C229.484 42.84 228.422 42.606 227.054 42.606H223.328V54H217.874Z" fill="#001B20"/>
<path d="M255.567 54.486C253.731 54.486 252.093 54.126 250.653 53.406C249.213 52.686 248.061 51.714 247.197 50.49C246.369 49.266 245.955 47.88 245.955 46.332C245.955 44.388 246.441 42.858 247.413 41.742C248.421 40.626 250.059 39.816 252.327 39.312C254.631 38.808 257.727 38.556 261.615 38.556H263.451V37.152C263.451 35.1 263.019 33.624 262.155 32.724C261.291 31.824 259.869 31.374 257.889 31.374C256.377 31.374 254.865 31.608 253.353 32.076C251.841 32.508 250.293 33.21 248.709 34.182L247.035 30.348C248.403 29.376 250.113 28.602 252.165 28.026C254.217 27.45 256.179 27.162 258.051 27.162C261.651 27.162 264.315 28.026 266.043 29.754C267.771 31.446 268.635 34.11 268.635 37.746V54H263.505V49.626C262.857 51.138 261.849 52.326 260.481 53.19C259.113 54.054 257.475 54.486 255.567 54.486ZM256.647 50.598C258.591 50.598 260.211 49.914 261.507 48.546C262.803 47.178 263.451 45.45 263.451 43.362V41.904H261.669C259.041 41.904 256.971 42.03 255.459 42.282C253.983 42.534 252.921 42.966 252.273 43.578C251.661 44.154 251.355 44.964 251.355 46.008C251.355 47.376 251.823 48.492 252.759 49.356C253.695 50.184 254.991 50.598 256.647 50.598Z" fill="#001B20"/>
<path d="M274.026 61.02V49.68H276.942C278.094 47.952 278.922 45.954 279.426 43.686C279.93 41.382 280.182 38.592 280.182 35.316V27.648H299.676V49.68H303.888V61.02H299.244V54H278.724V61.02H274.026ZM282.018 49.68H294.492V31.914H284.934V36.45C284.934 38.934 284.682 41.346 284.178 43.686C283.674 46.026 282.954 48.024 282.018 49.68Z" fill="#001B20"/>
<path d="M321.736 54.486C317.416 54.486 314.014 53.28 311.53 50.868C309.046 48.42 307.804 45.09 307.804 40.878C307.804 38.178 308.344 35.802 309.424 33.75C310.54 31.662 312.07 30.042 314.014 28.89C315.958 27.738 318.19 27.162 320.71 27.162C324.346 27.162 327.208 28.332 329.296 30.672C331.384 32.976 332.428 36.162 332.428 40.23V42.066H313.096C313.492 47.538 316.39 50.274 321.79 50.274C323.302 50.274 324.778 50.04 326.218 49.572C327.694 49.104 329.08 48.33 330.376 47.25L331.996 51.03C330.808 52.11 329.278 52.956 327.406 53.568C325.534 54.18 323.644 54.486 321.736 54.486ZM320.926 30.996C318.658 30.996 316.858 31.698 315.526 33.102C314.194 34.506 313.384 36.378 313.096 38.718H327.838C327.73 36.27 327.082 34.38 325.894 33.048C324.706 31.68 323.05 30.996 320.926 30.996Z" fill="#001B20"/>
<path d="M338.9 54V27.648H343.382L352.94 44.334L362.444 27.648H366.926V54H362.12V36.126L354.236 49.734H351.59L343.706 36.126V54H338.9Z" fill="#001B20"/>
<path d="M375.128 54V27.648H380.096V46.764L394.352 27.648H398.942V54H393.974V34.938L379.718 54H375.128Z" fill="#001B20"/>
<path d="M404.924 54L408.92 47.088C409.964 45.216 411.332 43.974 413.024 43.362C410.792 43.002 409.082 42.174 407.894 40.878C406.706 39.546 406.112 37.818 406.112 35.694C406.112 33.246 406.94 31.302 408.596 29.862C410.252 28.386 412.718 27.648 415.994 27.648H428.576V54H423.5V44.388H420.098C418.838 44.388 417.758 44.73 416.858 45.414C415.958 46.062 415.22 46.872 414.644 47.844L411.134 54H404.924ZM417.128 40.662H423.5V31.374H417.128C415.148 31.374 413.69 31.788 412.754 32.616C411.818 33.408 411.35 34.524 411.35 35.964C411.35 37.44 411.818 38.592 412.754 39.42C413.69 40.248 415.148 40.662 417.128 40.662Z" fill="#001B20"/>
<path d="M32.0508 65V26.3659H39.7352V31.0854H40.0828C40.4244 30.3293 40.9184 29.561 41.5648 28.7805C42.2235 27.9878 43.0773 27.3293 44.1263 26.8049C45.1875 26.2683 46.5048 26 48.0783 26C50.1275 26 52.0181 26.5366 53.7502 27.6098C55.4822 28.6707 56.8666 30.2744 57.9034 32.4207C58.9402 34.5549 59.4586 37.2317 59.4586 40.4512C59.4586 43.5854 58.9524 46.2317 57.94 48.3902C56.9398 50.5366 55.5737 52.1646 53.8416 53.2744C52.1218 54.3719 50.1946 54.9207 48.06 54.9207C46.5475 54.9207 45.2607 54.6707 44.1995 54.1707C43.1505 53.6707 42.2906 53.0427 41.6197 52.2866C40.9489 51.5183 40.4366 50.7439 40.0828 49.9634H39.845V65H32.0508ZM39.6803 40.4146C39.6803 42.0854 39.9121 43.5427 40.3756 44.7866C40.8391 46.0305 41.51 47 42.3882 47.6951C43.2664 48.378 44.3337 48.7195 45.59 48.7195C46.8586 48.7195 47.9319 48.372 48.8102 47.6768C49.6884 46.9695 50.3532 45.9939 50.8045 44.75C51.268 43.4939 51.4997 42.0488 51.4997 40.4146C51.4997 38.7927 51.2741 37.3659 50.8228 36.1341C50.3714 34.9024 49.7067 33.939 48.8285 33.2439C47.9502 32.5488 46.8708 32.2012 45.59 32.2012C44.3215 32.2012 43.2481 32.5366 42.3699 33.2073C41.5038 33.878 40.8391 34.8293 40.3756 36.061C39.9121 37.2927 39.6803 38.7439 39.6803 40.4146Z" fill="#FC8B2A"/>
<path d="M18.0218 42.5004V26.3662H25.8161V54.4638H18.3329V49.3601H18.0401C17.4059 51.0065 16.3508 52.3296 14.8749 53.3296C13.4112 54.3296 11.6242 54.8296 9.51408 54.8296C7.63566 54.8296 5.98289 54.4028 4.55578 53.5491C3.12867 52.6955 2.01259 51.4821 1.20755 49.9089C0.414716 48.3357 0.0121975 46.4516 0 44.2565V26.3662H7.79422V42.8662C7.80641 44.5247 8.25163 45.8357 9.12985 46.7991C10.0081 47.7626 11.1851 48.2443 12.661 48.2443C13.6002 48.2443 14.4785 48.0308 15.2957 47.604C16.1129 47.165 16.7716 46.5186 17.2717 45.665C17.784 44.8113 18.034 43.7565 18.0218 42.5004Z" fill="#FC8B2A"/>
<path d="M152.141 54.9207C150.006 54.9207 148.073 54.3719 146.341 53.2744C144.621 52.1646 143.255 50.5366 142.242 48.3902C141.242 46.2317 140.742 43.5854 140.742 40.4512C140.742 37.2317 141.261 34.5549 142.297 32.4207C143.334 30.2744 144.712 28.6707 146.432 27.6098C148.164 26.5366 150.061 26 152.122 26C153.696 26 155.007 26.2683 156.056 26.8049C157.117 27.3293 157.971 27.9878 158.618 28.7805C159.276 29.561 159.776 30.3293 160.118 31.0854H160.356V17H168.132V54.4634H160.447V49.9634H160.118C159.752 50.7439 159.234 51.5183 158.563 52.2866C157.904 53.0427 157.044 53.6707 155.983 54.1707C154.934 54.6707 153.653 54.9207 152.141 54.9207ZM154.611 48.7195C155.867 48.7195 156.928 48.378 157.794 47.6951C158.673 47 159.343 46.0305 159.807 44.7866C160.283 43.5427 160.52 42.0854 160.52 40.4146C160.52 38.7439 160.289 37.2927 159.825 36.061C159.362 34.8293 158.691 33.878 157.813 33.2073C156.934 32.5366 155.867 32.2012 154.611 32.2012C153.33 32.2012 152.251 32.5488 151.372 33.2439C150.494 33.939 149.829 34.9024 149.378 36.1341C148.927 37.3658 148.701 38.7927 148.701 40.4146C148.701 42.0488 148.927 43.4939 149.378 44.75C149.842 45.9939 150.506 46.9695 151.372 47.6768C152.251 48.3719 153.33 48.7195 154.611 48.7195Z" fill="#008AA4"/>
<path d="M123.801 55.0122C120.91 55.0122 118.422 54.4268 116.336 53.2561C114.263 52.0732 112.665 50.4024 111.543 48.2439C110.42 46.0732 109.859 43.5061 109.859 40.5427C109.859 37.6524 110.42 35.1159 111.543 32.9329C112.665 30.75 114.244 29.0488 116.281 27.8293C118.331 26.6098 120.733 26 123.49 26C125.344 26 127.07 26.2988 128.668 26.8963C130.278 27.4817 131.681 28.3659 132.876 29.5488C134.084 30.7317 135.023 32.2195 135.694 34.0122C136.365 35.7927 136.7 37.878 136.7 40.2683V42.4085H112.97V37.5793H129.363C129.363 36.4573 129.119 35.4634 128.631 34.5976C128.143 33.7317 127.467 33.0549 126.6 32.5671C125.747 32.0671 124.753 31.8171 123.618 31.8171C122.435 31.8171 121.386 32.0915 120.471 32.6402C119.569 33.1768 118.861 33.9024 118.349 34.8171C117.837 35.7195 117.574 36.7256 117.562 37.8354V42.4268C117.562 43.8171 117.818 45.0183 118.331 46.0305C118.855 47.0427 119.593 47.8232 120.544 48.3719C121.496 48.9207 122.624 49.1951 123.929 49.1951C124.795 49.1951 125.588 49.0732 126.308 48.8293C127.027 48.5854 127.643 48.2195 128.156 47.7317C128.668 47.2439 129.058 46.6463 129.327 45.939L136.535 46.4146C136.169 48.1463 135.419 49.6585 134.285 50.9512C133.163 52.2317 131.711 53.2317 129.93 53.9512C128.162 54.6585 126.119 55.0122 123.801 55.0122Z" fill="#008AA4"/>
<path d="M64 54.4634V26.3659H71.4283V31.3232H71.7576C72.3431 29.6768 73.3189 28.378 74.685 27.4268C76.0512 26.4756 77.6856 26 79.5884 26C81.5156 26 83.1562 26.4817 84.5101 27.4451C85.8641 28.3963 86.7667 29.689 87.218 31.3232H87.5107C88.084 29.7134 89.1208 28.4268 90.6211 27.4634C92.1336 26.4878 93.9205 26 95.9819 26C98.6044 26 100.733 26.8354 102.367 28.5061C104.014 30.1646 104.837 32.5183 104.837 35.5671V54.4634H97.0614V37.1037C97.0614 35.5427 96.6467 34.3719 95.8172 33.5915C94.9878 32.811 93.951 32.4207 92.7069 32.4207C91.292 32.4207 90.1881 32.872 89.3952 33.7744C88.6024 34.6646 88.206 35.8415 88.206 37.3049V54.4634H80.6496V36.939C80.6496 35.561 80.2532 34.4634 79.4604 33.6463C78.6797 32.8293 77.649 32.4207 76.3683 32.4207C75.5023 32.4207 74.7216 32.6402 74.0264 33.0793C73.3433 33.5061 72.8005 34.1098 72.398 34.8902C71.9955 35.6585 71.7942 36.561 71.7942 37.5976V54.4634H64Z" fill="#008AA4"/>
</svg>
